<svg width="143" height="49" viewBox="0 0 143 49" fill="none" xmlns="http://www.w3.org/2000/svg"><rect y="0.871094" width="143" height="48" rx="9.69492" fill="black"></rect><path d="M31.3205 23.7762C31.2915 20.3394 34.1562 18.669 34.282 18.5922C32.6561 16.2498 30.1398 15.9234 29.259 15.8946C27.1492 15.6738 25.0974 17.1522 24.0231 17.1522C22.9295 17.1522 21.2648 15.9234 19.484 15.9522C17.1903 15.9906 15.032 17.3058 13.861 19.3602C11.4317 23.5362 13.2416 29.6802 15.574 33.0594C16.7451 34.7106 18.1 36.5634 19.8905 36.4962C21.6326 36.429 22.2907 35.3922 24.3909 35.3922C26.4814 35.3922 27.0911 36.4962 28.9106 36.4578C30.7882 36.429 31.9593 34.797 33.0916 33.1266C34.4369 31.2354 34.9789 29.3634 34.9982 29.2674C34.9498 29.2482 31.3592 27.885 31.3205 23.7762Z" fill="white"></path><path d="M27.8858 13.6768C28.8246 12.5152 29.4633 10.9312 29.2891 9.31836C27.9342 9.37596 26.2308 10.2496 25.2533 11.392C24.3919 12.4 23.6177 14.0416 23.8112 15.5872C25.3404 15.7024 26.9083 14.8192 27.8858 13.6768Z" fill="white"></path><path d="M56.5981 36.2563H54.1592L52.8236 32.0899H48.1781L46.9102 36.2563H44.5391L49.1362 22.0771H51.9816L56.5981 36.2563ZM52.4268 30.3427L51.217 26.6467C51.0912 26.2627 50.8493 25.3795 50.5009 23.9779H50.4525C50.3073 24.5827 50.0847 25.4755 49.775 26.6467L48.5846 30.3427H52.4268Z" fill="white"></path><path d="M68.4182 31.0255C68.4182 32.7631 67.9439 34.1359 66.9858 35.1439C66.1341 36.0463 65.0695 36.4879 63.8113 36.4879C62.4467 36.4879 61.4692 36.0079 60.8691 35.0383V40.4047H58.5754V29.3935C58.5754 28.2991 58.5464 27.1855 58.4883 26.0335H60.5014L60.6272 27.6559H60.6659C61.4305 26.4367 62.5919 25.8223 64.1404 25.8223C65.3598 25.8223 66.3664 26.3023 67.1793 27.2527C68.0117 28.2127 68.4182 29.4607 68.4182 31.0255ZM66.0857 31.1023C66.0857 30.1039 65.8631 29.2879 65.4082 28.6447C64.9146 27.9727 64.2468 27.6367 63.4145 27.6367C62.8532 27.6367 62.3402 27.8287 61.8757 28.1935C61.4208 28.5679 61.1111 29.0479 60.9756 29.6527C60.9078 29.9311 60.8691 30.1615 60.8691 30.3439V32.0527C60.8691 32.7919 61.1014 33.4255 61.5563 33.9343C62.0112 34.4431 62.6112 34.7023 63.3468 34.7023C64.2081 34.7023 64.8759 34.3663 65.3598 33.7135C65.8437 33.0511 66.0857 32.1871 66.0857 31.1023Z" fill="white"></path><path d="M80.2619 31.0255C80.2619 32.7631 79.7877 34.1359 78.8295 35.1439C77.9778 36.0463 76.9132 36.4879 75.6551 36.4879C74.2904 36.4879 73.3129 36.0079 72.7129 35.0383V40.4047H70.4191V29.3935C70.4191 28.2991 70.3901 27.1855 70.332 26.0335H72.3451L72.4709 27.6559H72.5096C73.2742 26.4367 74.4356 25.8223 75.9841 25.8223C77.2036 25.8223 78.2101 26.3023 79.0231 27.2527C79.8554 28.2127 80.2619 29.4607 80.2619 31.0255ZM77.9294 31.1023C77.9294 30.1039 77.7068 29.2879 77.252 28.6447C76.7584 27.9727 76.0906 27.6367 75.2583 27.6367C74.6969 27.6367 74.184 27.8287 73.7194 28.1935C73.2645 28.5679 72.9645 29.0479 72.8193 29.6527C72.7516 29.9311 72.7129 30.1615 72.7129 30.3439V32.0527C72.7129 32.7919 72.9452 33.4255 73.4 33.9343C73.8549 34.4431 74.455 34.7023 75.1905 34.7023C76.0519 34.7023 76.7293 34.3663 77.2036 33.7135C77.6972 33.0511 77.9294 32.1871 77.9294 31.1023Z" fill="white"></path><path d="M93.5197 32.2824C93.5197 33.492 93.0938 34.4712 92.2518 35.2296C91.3227 36.0552 90.0258 36.468 88.3612 36.468C86.8223 36.468 85.5932 36.1704 84.6641 35.5848L85.1964 33.6936C86.2029 34.2792 87.3062 34.5768 88.5063 34.5768C89.3677 34.5768 90.0452 34.3848 90.5194 34.0008C91.0033 33.6168 91.2453 33.0984 91.2453 32.4552C91.2453 31.8792 91.042 31.3992 90.6549 31.0056C90.2581 30.612 89.6 30.2472 88.6805 29.9112C86.1545 28.98 84.906 27.6264 84.906 25.8504C84.906 24.6888 85.3512 23.7384 86.2319 22.9896C87.1127 22.2504 88.2837 21.876 89.7451 21.876C91.042 21.876 92.126 22.0968 92.9874 22.548L92.4067 24.3912C91.5937 23.9592 90.6839 23.7384 89.658 23.7384C88.8547 23.7384 88.216 23.94 87.7611 24.324C87.3836 24.6792 87.1901 25.1016 87.1901 25.6104C87.1901 26.1672 87.4127 26.6376 87.8482 26.9928C88.2257 27.3288 88.9225 27.6936 89.929 28.0872C91.1582 28.5768 92.0582 29.1528 92.6389 29.8152C93.2293 30.4776 93.5197 31.3032 93.5197 32.2824Z" fill="white"></path><path d="M101.111 27.7421H98.5853V32.7053C98.5853 33.9629 99.0305 34.5965 99.9209 34.5965C100.327 34.5965 100.666 34.5581 100.937 34.4909L101.005 36.2189C100.55 36.3821 99.9596 36.4685 99.2241 36.4685C98.3143 36.4685 97.6175 36.1901 97.1046 35.6429C96.5916 35.0957 96.34 34.1741 96.34 32.8877V27.7325H94.8398V26.0333H96.34V24.1613L98.5853 23.4893V26.0333H101.111V27.7421Z" fill="white"></path><path d="M112.469 31.0631C112.469 32.6375 112.015 33.9239 111.114 34.9319C110.166 35.9686 108.908 36.487 107.34 36.487C105.83 36.487 104.62 35.9878 103.72 34.9991C102.82 34.0103 102.375 32.7527 102.375 31.2359C102.375 29.6519 102.84 28.3559 103.759 27.3479C104.688 26.3399 105.937 25.8311 107.504 25.8311C109.014 25.8311 110.234 26.3303 111.153 27.3287C112.034 28.2887 112.469 29.5367 112.469 31.0631ZM110.098 31.1111C110.098 30.1703 109.895 29.3735 109.488 28.7015C109.005 27.8855 108.317 27.4823 107.427 27.4823C106.508 27.4823 105.801 27.8855 105.327 28.7015C104.911 29.3735 104.717 30.1895 104.717 31.1591C104.717 32.0999 104.92 32.9063 105.327 33.5687C105.82 34.3847 106.517 34.7879 107.408 34.7879C108.279 34.7879 108.966 34.3751 109.469 33.5495C109.885 32.8583 110.098 32.0519 110.098 31.1111Z" fill="white"></path><path d="M119.921 28.0303C119.698 27.9919 119.456 27.9727 119.195 27.9727C118.392 27.9727 117.763 28.2703 117.327 28.8751C116.95 29.4031 116.756 30.0847 116.756 30.8911V36.2575H114.462V29.2495C114.462 28.0687 114.443 26.9935 114.395 26.0335H116.388L116.475 27.9919H116.543C116.785 27.3199 117.163 26.7727 117.685 26.3695C118.198 26.0047 118.75 25.8223 119.34 25.8223C119.553 25.8223 119.747 25.8415 119.911 25.8607L119.921 28.0303Z" fill="white"></path><path d="M130.157 30.6592C130.157 31.0624 130.128 31.408 130.07 31.6864H123.199C123.228 32.6944 123.557 33.472 124.196 34C124.776 34.4704 125.522 34.7104 126.441 34.7104C127.457 34.7104 128.386 34.5472 129.219 34.2304L129.577 35.8048C128.599 36.2272 127.448 36.4384 126.122 36.4384C124.525 36.4384 123.267 35.968 122.357 35.0368C121.447 34.1056 120.992 32.848 120.992 31.2832C120.992 29.7472 121.418 28.4608 122.27 27.4336C123.16 26.3392 124.36 25.792 125.87 25.792C127.351 25.792 128.483 26.3392 129.238 27.4336C129.848 28.3168 130.157 29.3824 130.157 30.6592ZM127.97 30.0736C127.99 29.4016 127.835 28.816 127.525 28.3264C127.128 27.6928 126.518 27.376 125.705 27.376C124.96 27.376 124.351 27.6832 123.886 28.2976C123.509 28.7872 123.276 29.3824 123.208 30.064L127.97 30.0736Z" fill="white"></path><path d="M51.3195 17.0077H50.1194L49.4613 14.9629H47.1772L46.5481 17.0077H45.3867L47.6417 10.0381H49.0354L51.3195 17.0077ZM49.258 14.0989L48.6676 12.2749C48.6096 12.0925 48.4934 11.6509 48.3095 10.9597H48.2902C48.2128 11.2573 48.116 11.6893 47.9515 12.2749L47.3708 14.0989H49.258Z" fill="white"></path><path d="M56.9697 11.9766L55.0534 17.007H53.9598L52.1016 11.9766H53.3113L54.1727 14.6358C54.3179 15.0774 54.4437 15.4998 54.5405 15.903H54.5695C54.6566 15.5382 54.7824 15.1158 54.9373 14.6358L55.789 11.9766H56.9697Z" fill="white"></path><path d="M61.0556 17.0065L60.9685 16.4304H60.9394C60.591 16.8913 60.0974 17.1217 59.4587 17.1217C58.5489 17.1217 57.9102 16.4881 57.9102 15.6433C57.9102 14.4048 58.9941 13.7616 60.8717 13.7616V13.6656C60.8717 13.0032 60.5136 12.6768 59.8168 12.6768C59.3135 12.6768 58.878 12.8016 58.4909 13.0512L58.2586 12.3216C58.7231 12.0336 59.3135 11.8896 60.0007 11.8896C61.3266 11.8896 61.9944 12.5808 61.9944 13.9728V15.8257C61.9944 16.3345 62.0137 16.7281 62.0718 17.0257L61.0556 17.0065ZM60.9007 14.5008C59.6522 14.5008 59.0232 14.7984 59.0232 15.5184C59.0232 16.0465 59.3425 16.3057 59.7974 16.3057C60.3684 16.3057 60.9007 15.8736 60.9007 15.2784V14.5008Z" fill="white"></path><path d="M64.4998 11.1508C64.1224 11.1508 63.832 10.8628 63.832 10.4788C63.832 10.0948 64.1321 9.81641 64.5192 9.81641C64.9063 9.81641 65.216 10.0948 65.2063 10.4788C65.2063 10.882 64.916 11.1508 64.4998 11.1508ZM63.9578 11.9764H65.0805V16.9972H63.9578V11.9764Z" fill="white"></path><path d="M67.0859 9.67285H68.2086V16.9977H67.0859V9.67285Z" fill="white"></path><path d="M72.9892 17.0073L72.9021 16.4313H72.873C72.5246 16.8921 72.031 17.1225 71.3923 17.1225C70.4825 17.1225 69.8438 16.4889 69.8438 15.6441C69.8438 14.4057 70.9277 13.7625 72.8053 13.7625V13.6665C72.8053 13.0041 72.4472 12.6777 71.7504 12.6777C71.2471 12.6777 70.8116 12.8025 70.4244 13.0521L70.1922 12.3129C70.6567 12.0249 71.2471 11.8809 71.9342 11.8809C73.2602 11.8809 73.928 12.5721 73.928 13.9641V15.8169C73.928 16.3257 73.9473 16.7193 73.9957 17.0169H72.9892V17.0073ZM72.8343 14.5017C71.5858 14.5017 70.9567 14.7993 70.9567 15.5193C70.9567 16.0473 71.2761 16.3065 71.731 16.3065C72.302 16.3065 72.8343 15.8745 72.8343 15.2793V14.5017Z" fill="white"></path><path d="M78.4976 17.1224C77.7814 17.1224 77.2491 16.8248 76.9007 16.2297H76.8814L76.8136 17.0072H75.8555C75.8845 16.604 75.8942 16.1528 75.8942 15.6536V9.67285H77.0265V12.7161H77.0459C77.3846 12.1593 77.9169 11.8809 78.6622 11.8809C79.8816 11.8809 80.7333 12.9177 80.7333 14.4248C80.7333 15.98 79.7848 17.1224 78.4976 17.1224ZM78.2653 12.7545C77.6169 12.7545 77.0265 13.3113 77.0265 14.0889V14.9721C77.0265 15.6632 77.5588 16.2297 78.246 16.2297C79.088 16.2297 79.5913 15.548 79.5913 14.4632C79.5913 13.4457 79.0686 12.7545 78.2653 12.7545Z" fill="white"></path><path d="M82.3945 9.67285H83.5172V16.9977H82.3945V9.67285Z" fill="white"></path><path d="M89.6492 14.7615H86.2715C86.2908 15.7119 86.9296 16.2495 87.8684 16.2495C88.3716 16.2495 88.8265 16.1631 89.233 16.0095L89.4072 16.7871C88.933 16.9983 88.3716 17.0943 87.7135 17.0943C86.1263 17.0943 85.1875 16.1055 85.1875 14.5599C85.1875 13.0239 86.1456 11.8623 87.5877 11.8623C88.8749 11.8623 89.6976 12.8127 89.6976 14.2527C89.6976 14.4543 89.6879 14.6271 89.6492 14.7615ZM88.6233 13.9647C88.6233 13.1871 88.2265 12.6399 87.5103 12.6399C86.8618 12.6399 86.3586 13.1967 86.2811 13.9647H88.6233Z" fill="white"></path><path d="M96.4702 17.1225C94.9894 17.1225 94.0312 16.0281 94.0312 14.5401C94.0312 12.9849 95.0088 11.8809 96.5573 11.8809C98.0187 11.8809 98.9962 12.9273 98.9962 14.4537C98.9962 16.0185 97.9897 17.1225 96.4702 17.1225ZM96.5186 12.6969C95.7056 12.6969 95.183 13.4553 95.183 14.5017C95.183 15.5385 95.7153 16.2873 96.5089 16.2873C97.3025 16.2873 97.8348 15.4809 97.8348 14.4729C97.8251 13.4553 97.3122 12.6969 96.5186 12.6969Z" fill="white"></path><path d="M105.042 17.0071H103.919V14.1175C103.919 13.2247 103.571 12.7831 102.893 12.7831C102.226 12.7831 101.771 13.3495 101.771 14.0119V16.9975H100.648V13.4167C100.648 12.9751 100.638 12.4951 100.609 11.9767H101.597L101.645 12.7543H101.674C101.974 12.2167 102.593 11.8711 103.281 11.8711C104.345 11.8711 105.042 12.6775 105.042 13.9927V17.0071Z" fill="white"></path><path d="M112.408 12.8223H111.169V15.2607C111.169 15.8847 111.392 16.1919 111.827 16.1919C112.021 16.1919 112.195 16.1727 112.33 16.1439L112.359 16.9887C112.137 17.0751 111.847 17.1135 111.488 17.1135C110.598 17.1135 110.075 16.6239 110.075 15.3567V12.8223H109.34V11.9871H110.075V11.0655L111.179 10.7295V11.9775H112.418V12.8223" fill="white"></path><path d="M118.37 17.0073H117.248V14.1369C117.248 13.2345 116.899 12.7833 116.222 12.7833C115.641 12.7833 115.099 13.1769 115.099 13.9737V16.9977H113.977V9.67285H115.099V12.6873H115.119C115.477 12.1401 115.98 11.8713 116.638 11.8713C117.712 11.8713 118.37 12.6969 118.37 14.0121V17.0073Z" fill="white"></path><path d="M124.122 14.7615H120.744C120.763 15.7119 121.402 16.2495 122.341 16.2495C122.844 16.2495 123.299 16.1631 123.706 16.0095L123.88 16.7871C123.406 16.9983 122.844 17.0943 122.186 17.0943C120.599 17.0943 119.66 16.1055 119.66 14.5599C119.66 13.0239 120.618 11.8623 122.06 11.8623C123.348 11.8623 124.17 12.8127 124.17 14.2527C124.17 14.4543 124.161 14.6271 124.122 14.7615ZM123.096 13.9647C123.096 13.1871 122.699 12.6399 121.983 12.6399C121.334 12.6399 120.822 13.1967 120.754 13.9647H123.096Z" fill="white"></path></svg>