<svg width="117" height="16" viewBox="0 0 117 16" fill="none" xmlns="http://www.w3.org/2000/svg"><path d="M2.33369 2.66668C2.4253 2.65444 2.51739 2.6856 2.58274 2.75096C2.6481 2.81631 2.67926 2.9084 2.66702 3.00001V9.03334C2.66142 9.36926 2.69385 9.70472 2.76369 10.0333C2.81707 10.2711 2.93202 10.4907 3.09702 10.67C3.26632 10.8362 3.47879 10.9517 3.71036 11.0033C4.03071 11.0755 4.35873 11.108 4.68702 11.1H10.7937C10.8853 11.0878 10.9774 11.1189 11.0427 11.1843C11.1081 11.2496 11.1393 11.3417 11.127 11.4333V12.9167C11.1393 13.0083 11.1081 13.1004 11.0427 13.1657C10.9774 13.2311 10.8853 13.2622 10.7937 13.25H4.57036C3.9141 13.2625 3.25891 13.1919 2.62036 13.04C2.1329 12.9231 1.68252 12.6858 1.31036 12.35C0.958431 12.0114 0.70203 11.586 0.567023 11.1167C0.398604 10.5126 0.319984 9.88699 0.333689 9.26001V3.00001C0.324141 2.90901 0.356178 2.81856 0.420877 2.75386C0.485577 2.68917 0.576024 2.65713 0.667023 2.66668H2.33369Z" fill="white"></path><path d="M21.6167 2.66675C22.2769 2.65426 22.9358 2.72822 23.5767 2.88675C24.072 3.00493 24.5302 3.24432 24.9101 3.58342C25.2595 3.92229 25.5126 4.34792 25.6434 4.81675C25.801 5.4203 25.8717 6.04323 25.8534 6.66675V9.27008C25.8655 9.89655 25.7892 10.5216 25.6267 11.1267C25.4976 11.5982 25.2443 12.0264 24.8934 12.3667C24.5139 12.705 24.0554 12.9422 23.5601 13.0567C22.9181 13.2082 22.2596 13.2787 21.6001 13.2667H16.9334C16.2823 13.2745 15.6328 13.2006 15.0001 13.0467C14.5043 12.9335 14.0455 12.696 13.6667 12.3567C13.3138 12.0163 13.0573 11.5885 12.9234 11.1167C12.755 10.5127 12.6764 9.88707 12.6901 9.26008V6.66675C12.676 6.04304 12.7547 5.4207 12.9234 4.82008C13.0574 4.34742 13.3138 3.91852 13.6667 3.57675C14.046 3.23672 14.5044 2.9972 15.0001 2.88008C15.6335 2.7245 16.2846 2.65277 16.9367 2.66675H21.6167ZM15.0167 9.10008C15.0106 9.43602 15.043 9.77155 15.1134 10.1001C15.1668 10.3379 15.2817 10.5574 15.4467 10.7367C15.6159 10.9031 15.8284 11.0186 16.0601 11.0701C16.3803 11.1436 16.7083 11.1772 17.0367 11.1701H21.5234C21.8518 11.1772 22.1799 11.1436 22.5001 11.0701C22.7317 11.0186 22.9442 10.9031 23.1134 10.7367C23.2796 10.5583 23.3947 10.3384 23.4467 10.1001C23.5172 9.77155 23.5496 9.43602 23.5434 9.10008V6.82342C23.5499 6.48747 23.5174 6.15191 23.4467 5.82342C23.3947 5.58514 23.2796 5.36524 23.1134 5.18675C22.9441 5.02053 22.7316 4.90506 22.5001 4.85342C22.1795 4.78286 21.8516 4.75041 21.5234 4.75675H17.0301C16.7018 4.75041 16.374 4.78286 16.0534 4.85342C15.8218 4.90506 15.6094 5.02053 15.4401 5.18675C15.2751 5.36608 15.1601 5.58564 15.1067 5.82342C15.0361 6.15191 15.0036 6.48747 15.0101 6.82342L15.0167 9.10008Z" fill="white"></path><path d="M38.6667 2.66668C38.7583 2.65444 38.8504 2.6856 38.9157 2.75096C38.9811 2.81631 39.0122 2.9084 39 3.00001V4.48334C39 4.71668 38.89 4.83334 38.6667 4.83334H31.9367C31.6095 4.82699 31.2828 4.85944 30.9633 4.93001C30.7314 4.9808 30.5187 5.09639 30.35 5.26334C30.1845 5.43969 30.0693 5.65727 30.0167 5.89334C29.944 6.22152 29.9115 6.55732 29.92 6.89334V9.03334C29.9127 9.36932 29.9452 9.70498 30.0167 10.0333C30.0687 10.2716 30.1838 10.4915 30.35 10.67C30.5187 10.837 30.7314 10.9526 30.9633 11.0033C31.2825 11.0756 31.6095 11.108 31.9367 11.1H38.6667C38.7583 11.0878 38.8504 11.1189 38.9157 11.1843C38.9811 11.2496 39.0122 11.3417 39 11.4333V12.9167C39.0137 13.0086 38.983 13.1016 38.9173 13.1673C38.8516 13.233 38.7586 13.2637 38.6667 13.25H31.8467C31.1893 13.2623 30.533 13.1917 29.8933 13.04C29.4071 12.9226 28.9579 12.6854 28.5867 12.35C28.2337 12.0096 27.9773 11.5817 27.8433 11.11C27.6749 10.5059 27.5963 9.88033 27.61 9.25334V6.66668C27.596 6.04297 27.6746 5.42063 27.8433 4.82001C27.9789 4.35094 28.2352 3.92566 28.5867 3.58668C28.9585 3.25076 29.4072 3.0115 29.8933 2.89001C30.5318 2.7301 31.1886 2.65501 31.8467 2.66668H38.6667Z" fill="white"></path><path d="M43.2766 2.66668C43.3682 2.65444 43.4603 2.6856 43.5256 2.75096C43.591 2.81631 43.6222 2.9084 43.6099 3.00001V7.02001H45.7432C45.9866 7.02001 46.1866 7.02001 46.3499 6.99668C46.4951 6.98609 46.6379 6.95349 46.7732 6.90001C46.8958 6.84858 47.0086 6.77641 47.1066 6.68668C47.2269 6.5852 47.3384 6.47369 47.4399 6.35334L50.0433 2.87001C50.0826 2.81041 50.1336 2.75939 50.1932 2.72001C50.2793 2.68217 50.3726 2.66395 50.4666 2.66668H52.3332C52.4632 2.66668 52.5432 2.71001 52.5666 2.79668C52.5936 2.87574 52.5799 2.96304 52.5299 3.03001L49.5932 6.83001C49.4444 7.03456 49.2853 7.23148 49.1166 7.42001C48.9823 7.57121 48.8375 7.71268 48.6832 7.84334C49.1289 8.13593 49.5193 8.50493 49.8366 8.93334L52.9366 12.87C52.9803 12.9394 52.9969 13.0225 52.9832 13.1033C52.9832 13.21 52.8933 13.2633 52.7399 13.2633H50.8032C50.71 13.2708 50.6163 13.2559 50.5299 13.22C50.4711 13.1784 50.4202 13.1264 50.3799 13.0667L47.5932 9.46334C47.4274 9.23056 47.2032 9.04548 46.9432 8.92668C46.6074 8.81458 46.2536 8.76597 45.8999 8.78334H43.5999V12.9233C43.6122 13.015 43.581 13.107 43.5156 13.1724C43.4503 13.2378 43.3582 13.2689 43.2666 13.2567H41.6299C41.3999 13.2567 41.2966 13.1467 41.2966 12.9233V3.00001C41.287 2.90901 41.3191 2.81856 41.3838 2.75386C41.4485 2.68917 41.5389 2.65713 41.6299 2.66668H43.2766Z" fill="white"></path><path d="M77.5475 2.66658C78.7075 2.66658 79.5397 2.92992 80.0441 3.45658C80.5508 3.97992 80.8008 4.75658 80.8008 5.78992V6.65325C80.8397 7.37698 80.6546 8.09511 80.2708 8.70992C79.8506 9.25015 79.2282 9.59564 78.5475 9.66658L81.1341 12.8766C81.1875 12.9392 81.2051 13.0247 81.1808 13.1032C81.1608 13.2032 81.0808 13.2532 80.9375 13.2532H79.0008C78.9086 13.2608 78.816 13.2459 78.7308 13.2099C78.6701 13.1693 78.618 13.1172 78.5775 13.0566L76.1875 9.90991H71.2808V12.9099C71.2945 13.0018 71.2638 13.0948 71.1981 13.1605C71.1324 13.2262 71.0394 13.2569 70.9475 13.2432H69.3141C69.0808 13.2432 68.9641 13.1332 68.9641 12.9099V3.11658C68.9483 2.99185 68.9916 2.86689 69.0812 2.77865C69.1707 2.6904 69.2963 2.64896 69.4208 2.66658H77.5475ZM71.2808 8.06658H77.0775C77.4708 8.10659 77.8637 7.98643 78.1675 7.73325C78.4069 7.45078 78.5265 7.08597 78.5008 6.71658V6.08325C78.5265 5.71386 78.4069 5.34905 78.1675 5.06658C77.8637 4.8134 77.4708 4.69324 77.0775 4.73325H71.4775C71.3475 4.73325 71.2808 4.79325 71.2808 4.91325V8.06658Z" fill="white"></path><path d="M84.4339 11.1369C84.5255 11.1247 84.6176 11.1558 84.6829 11.2212C84.7483 11.2865 84.7794 11.3786 84.7672 11.4702V12.9236C84.7809 13.0155 84.7502 13.1085 84.6845 13.1742C84.6188 13.2399 84.5258 13.2706 84.4339 13.2569H82.9505C82.7172 13.2569 82.6172 13.1469 82.6172 12.9236V11.4702C82.6172 11.2502 82.7305 11.1369 82.9505 11.1369H84.4339Z" fill="white"></path><path d="M114.187 0H89.0166C87.6359 0 86.5166 1.11929 86.5166 2.5V13.42C86.5166 14.8007 87.6359 15.92 89.0166 15.92H114.187C115.567 15.92 116.687 14.8007 116.687 13.42V2.5C116.687 1.11929 115.567 0 114.187 0Z" fill="#F68220"></path><path d="M63.9538 2.58664C64.496 2.57538 65.0377 2.62909 65.5671 2.74664C65.9427 2.83227 66.2882 3.01768 66.5671 3.2833C66.8283 3.55353 67.0105 3.89017 67.0938 4.25664C67.205 4.73623 67.2565 5.22774 67.2471 5.71997V7.53664C67.2804 7.84474 67.1838 8.15276 66.9805 8.38664C66.7434 8.56191 66.4511 8.64592 66.1571 8.6233H56.5205V9.0833C56.4765 9.55761 56.6323 10.0288 56.9505 10.3833C57.2371 10.65 57.7927 10.7833 58.6171 10.7833H66.5871C66.6781 10.7738 66.7686 10.8058 66.8333 10.8705C66.898 10.9352 66.93 11.0256 66.9205 11.1166V12.7333C66.93 12.8243 66.898 12.9147 66.8333 12.9794C66.7686 13.0441 66.6781 13.0762 66.5871 13.0666H58.3538C57.6248 13.0807 56.8966 13.0102 56.1838 12.8566C55.6717 12.7519 55.1933 12.523 54.7905 12.19C54.4345 11.8697 54.1728 11.4582 54.0338 11C53.8703 10.4257 53.7939 9.83021 53.8071 9.2333V6.4633C53.7939 5.86639 53.8703 5.27088 54.0338 4.69664C54.1709 4.23375 54.4327 3.81747 54.7905 3.4933C55.192 3.15362 55.6702 2.9168 56.1838 2.8033C56.896 2.64546 57.6244 2.57273 58.3538 2.58664H63.9538ZM56.5205 6.91997H64.2605C64.3533 6.93852 64.4493 6.90944 64.5163 6.84247C64.5833 6.7755 64.6123 6.67951 64.5938 6.58664V5.79664C64.6237 5.49523 64.5353 5.194 64.3471 4.95664C64.0832 4.7598 63.7544 4.67046 63.4271 4.70664H58.6205C57.7938 4.70664 57.2382 4.83664 56.9538 5.09664C56.633 5.45361 56.4769 5.92897 56.5238 6.40664L56.5205 6.91997Z" fill="white"></path><path d="M100.194 2.66668C100.286 2.65444 100.378 2.6856 100.443 2.75096C100.508 2.81631 100.539 2.9084 100.527 3.00001V4.48334C100.527 4.71668 100.414 4.83334 100.194 4.83334H92.6106C92.2823 4.82701 91.9545 4.85946 91.6339 4.93001C91.4023 4.98165 91.1898 5.09712 91.0206 5.26334C90.8563 5.44062 90.7414 5.65783 90.6872 5.89334C90.6163 6.2218 90.5839 6.55739 90.5906 6.89334V9.07334C90.585 9.40926 90.6174 9.74472 90.6872 10.0733C90.7406 10.3111 90.8556 10.5307 91.0206 10.71C91.1898 10.8762 91.4023 10.9917 91.6339 11.0433C91.9542 11.1155 92.2823 11.148 92.6106 11.14H97.6106C97.8233 11.1599 98.034 11.0856 98.1872 10.9367C98.3286 10.7247 98.3922 10.4703 98.3672 10.2167V9.00001C98.3672 8.86668 98.3072 8.80334 98.1872 8.80334H93.7439C93.5239 8.80334 93.4106 8.68668 93.4106 8.45334V7.32001C93.4106 7.08668 93.5239 6.97001 93.7439 6.97001H100.057C100.182 6.95187 100.308 6.99376 100.398 7.08301C100.487 7.17227 100.529 7.29842 100.511 7.42334V10.94C100.511 11.7889 100.349 12.3867 100.027 12.7333C99.66 13.1006 99.1521 13.2914 98.6339 13.2567H92.5206C91.8632 13.2693 91.2069 13.1988 90.5672 13.0467C90.0798 12.9297 89.6294 12.6925 89.2572 12.3567C88.9054 12.0153 88.6491 11.5878 88.5139 11.1167C88.3471 10.5123 88.2685 9.88691 88.2806 9.26001V6.66668C88.2682 6.04305 88.3468 5.42096 88.5139 4.82001C88.6509 4.35156 88.907 3.92663 89.2572 3.58668C89.6298 3.25005 90.0798 3.01073 90.5672 2.89001C91.2056 2.72972 91.8624 2.65462 92.5206 2.66668H100.194Z" fill="white"></path><path d="M111.621 2.58664C112.163 2.57538 112.705 2.62909 113.234 2.74664C113.61 2.83227 113.955 3.01768 114.234 3.2833C114.495 3.55353 114.677 3.89017 114.761 4.25664C114.872 4.73623 114.924 5.22774 114.914 5.71997V7.53664C114.947 7.84474 114.851 8.15276 114.647 8.38664C114.41 8.56191 114.118 8.64592 113.824 8.6233H104.187V9.0833C104.143 9.55761 104.299 10.0288 104.617 10.3833C104.904 10.65 105.46 10.7833 106.284 10.7833H114.254C114.345 10.7738 114.436 10.8058 114.5 10.8705C114.565 10.9352 114.597 11.0256 114.587 11.1166V12.7333C114.597 12.8243 114.565 12.9147 114.5 12.9794C114.436 13.0441 114.345 13.0762 114.254 13.0666H106.021C105.292 13.0807 104.564 13.0102 103.851 12.8566C103.339 12.7519 102.86 12.523 102.457 12.19C102.101 11.8697 101.84 11.4582 101.701 11C101.537 10.4257 101.461 9.83021 101.474 9.2333V6.4633C101.461 5.86639 101.537 5.27088 101.701 4.69664C101.838 4.23375 102.1 3.81747 102.457 3.4933C102.859 3.15362 103.337 2.9168 103.851 2.8033C104.563 2.64546 105.291 2.57273 106.021 2.58664H111.621ZM104.187 6.91997H111.927C112.02 6.93852 112.116 6.90944 112.183 6.84247C112.25 6.7755 112.279 6.67951 112.261 6.58664V5.79664C112.291 5.49523 112.202 5.194 112.014 4.95664C111.75 4.7598 111.421 4.67046 111.094 4.70664H106.287C105.461 4.70664 104.905 4.83664 104.621 5.09664C104.3 5.45361 104.144 5.92897 104.191 6.40664L104.187 6.91997Z" fill="white"></path></svg>