<svg width="180" height="90" viewBox="0 0 180 90" fill="none" xmlns="http://www.w3.org/2000/svg"><path fill-rule="evenodd" clip-rule="evenodd" d="M31.5332 24.9418C35.2493 24.3398 38.9287 23.6485 42.6163 23.0833C41.9626 23.2025 41.3123 23.3252 40.666 23.4452C36.9368 24.1391 33.2444 25.0628 29.4703 25.4804C28.771 25.5576 28.0986 25.5945 27.436 25.6142C28.8183 25.393 30.1876 25.1597 31.5332 24.9418ZM55.9834 22.0104C56.8785 22.0292 57.5493 21.6733 57.9965 21.1296C57.99 21.1836 57.9859 21.2376 57.9785 21.2908C55.5999 23.0687 52.5749 22.266 49.7368 22.2677C49.4961 22.2677 49.2545 22.2788 49.013 22.2857C51.3182 22.0773 53.6365 21.9598 55.9834 22.0104ZM10.0655 25.6503C12.6971 26.3947 15.4177 26.634 18.1603 26.5842C20.1824 29.327 24.3074 29.7618 27.3854 29.9299C32.3884 30.2027 37.4615 29.6306 42.4237 29.0088C46.6531 28.4796 50.5104 28.8167 54.7284 28.8587C58.5147 28.8956 62.8999 27.7798 63.1529 23.0953C63.2182 21.88 62.6339 21.0344 61.8113 20.5952C61.4515 18.271 60.5204 16.0257 59.941 13.5874C59.5959 12.1311 57.3469 12.4081 57.4187 13.9467C57.4628 14.9039 57.6113 15.8824 57.7541 16.8645C57.3184 16.4511 56.7349 16.1792 55.9834 16.1741C48.2786 16.1277 40.6236 17.4734 33.1056 19.1553C25.4718 20.8646 17.6381 22.0541 10.0655 23.9701C9.26254 24.1734 9.29028 25.4307 10.0655 25.6503Z" fill="#E1E1E1"></path><path fill-rule="evenodd" clip-rule="evenodd" d="M7.58055 66.1129C12.0134 67.1738 16.7772 63.9725 15.611 58.7568C15.0086 56.064 11.4228 56.3468 10.688 58.7568C10.4584 59.5111 10.5196 60.4927 9.87783 60.8672C9.22183 61.2506 7.72131 60.847 7.00498 60.7853C5.27824 60.6364 2.707 60.2592 1.46285 58.8379C0.897324 58.192 -0.228696 58.8626 0.04108 59.7085C0.976916 62.6428 4.85012 65.459 7.58055 66.1129Z" fill="#E1E1E1"></path><path fill-rule="evenodd" clip-rule="evenodd" d="M8.51331 60.7185C8.69487 61.245 9.20395 61.5786 9.74951 61.5786C9.8859 61.5786 10.0249 61.5577 10.1613 61.5132C10.845 61.2944 11.2124 60.5818 10.9857 59.9228C10.6122 58.8405 10.5183 57.754 10.4966 56.8418C9.63397 56.9231 8.76698 56.9935 7.89478 57.038C7.92779 58.1103 8.05375 59.3871 8.51331 60.7185Z" fill="#868686"></path><path fill-rule="evenodd" clip-rule="evenodd" d="M11.0527 53.5023C11.0527 52.075 10.9221 50.9652 10.6305 49.9042C10.4445 49.2281 9.69183 48.8155 8.94661 48.9856C8.20232 49.1548 7.75055 49.8411 7.93663 50.5181C8.17084 51.3703 8.27545 52.2906 8.27545 53.5023C8.27545 54.0892 8.25231 54.6761 8.22824 55.2631C9.1549 55.2218 10.0853 55.1494 11.0119 55.0652C11.0323 54.5439 11.0527 54.0236 11.0527 53.5023Z" fill="#868686"></path><path fill-rule="evenodd" clip-rule="evenodd" d="M2.58841 56.5218C3.88313 56.7375 5.24219 56.842 6.74293 56.842C7.35446 56.842 7.96518 56.822 8.57509 56.7921C9.39182 56.7506 10.2053 56.6861 11.0139 56.6124C11.8095 56.5394 12.6018 56.4596 13.3827 56.3782C14.8346 56.2246 16.3369 56.0664 17.7978 55.9857C18.4712 55.9481 18.985 55.4029 18.9451 54.7678C18.9052 54.1328 18.3401 53.6513 17.6544 53.6858C16.1293 53.7703 14.5943 53.9316 13.1107 54.0882C12.4308 54.1596 11.7419 54.2295 11.0522 54.2948C10.2371 54.3716 9.41869 54.4376 8.60359 54.4814C7.97984 54.5144 7.35772 54.5382 6.74293 54.5382C5.38631 54.5382 4.16569 54.4445 3.01265 54.2533C2.35307 54.1435 1.71548 54.5605 1.59741 55.1871C1.48097 55.8137 1.92476 56.4112 2.58841 56.5218Z" fill="#868686"></path><path fill-rule="evenodd" clip-rule="evenodd" d="M7.47521 24.7694C8.14839 24.8171 8.75201 24.3013 8.79755 23.6203C9.12876 18.6802 14.1714 12.1141 16.2771 12.1141C17.5646 12.1141 21.0382 13.5049 23.5603 17.8018C23.7996 18.2098 24.2443 18.4499 24.7278 18.4113C25.2014 18.3751 25.6138 18.0732 25.7885 17.6332C28.3736 11.1229 32.4996 2.46756 38.463 2.46756C41.6062 2.46756 45.7537 5.68114 47.25 11.6378C47.3452 12.0195 47.6184 12.332 47.9852 12.4817C48.3504 12.6298 48.7661 12.5961 49.1039 12.3913C50.1248 11.7694 51.2592 11.4404 52.3853 11.4404C55.4772 11.4404 59.0873 14.0708 59.0948 21.4793C49.8127 21.689 40.509 22.4104 31.4994 23.1079C25.4788 23.5742 19.2538 24.0562 13.1463 24.3754C12.4607 24.4116 11.9357 24.9923 11.9714 25.6733C12.0061 26.3313 12.5543 26.8421 13.2109 26.8421C13.2324 26.8421 13.254 26.8413 13.2771 26.8405C19.4161 26.5189 25.6569 26.036 31.6915 25.568C41.0481 24.8434 50.7218 24.0941 60.3219 23.9222C60.9686 23.9115 61.4969 23.4097 61.5391 22.769C61.5664 22.347 61.5788 21.9243 61.5788 21.5015C61.5788 12.8469 56.9618 8.97287 52.3853 8.97287C51.3164 8.97287 50.2482 9.18014 49.2331 9.57824C47.1224 3.2835 42.358 0 38.463 0C31.2162 0 26.624 9.1678 24.3511 14.5759C21.7867 11.3319 18.526 9.64651 16.2771 9.64651C11.2501 9.64651 6.57929 19.5636 6.31846 23.4566C6.27292 24.136 6.79043 24.7241 7.47521 24.7694Z" fill="#868686"></path><path fill-rule="evenodd" clip-rule="evenodd" d="M152.869 67.9952L152.694 67.9824C159.214 67.2211 165.802 66.7873 172.277 65.8974C169.908 67.0599 167.653 67.9584 164.8 68.1915C160.844 68.5139 156.819 68.2781 152.869 67.9952ZM178.885 70.9015C180.67 69.0326 180.111 66.6638 178.617 65.3616C177.97 62.6114 177.098 60.0027 176.011 57.369C175.547 56.2443 174.114 57.1196 174.267 58.1406C174.347 58.6593 174.427 59.1899 174.504 59.724C174.07 59.3957 173.567 59.1659 173.01 59.0948C165.616 58.1492 157.225 60.4142 149.945 61.7327C142.422 63.0941 134.353 63.8476 127.024 66.0114C126.028 66.3055 126.133 67.6866 127.024 68.0261C128.592 68.6236 130.247 69.0094 131.948 69.2503C131.759 69.3146 131.567 69.372 131.379 69.4406C130.385 69.8007 130.458 71.5993 131.643 71.493C139.979 70.7437 148.42 73.9431 156.624 75.1451C163.698 76.1815 173.368 76.6779 178.885 70.9015Z" fill="#E1E1E1"></path><path fill-rule="evenodd" clip-rule="evenodd" d="M176.838 66.4677L176.842 65.1968C176.842 56.6306 175.469 46.4182 168.93 46.4182C166.934 46.4182 164.266 47.1573 161.924 50.2906C160.849 46.645 158.691 42.6313 152.878 42.6313C147.154 42.6313 142.734 48.5339 140.876 54.9707C139.184 53.4303 137.09 52.0763 134.963 52.0763C130.037 52.0763 124.479 56.4078 123.169 66.0852C123.08 66.7485 123.551 67.3569 124.224 67.4449C124.902 67.5352 125.515 67.068 125.605 66.4056C126.163 62.2862 128.836 54.4971 134.963 54.4971C136.483 54.4971 138.497 55.8091 140.634 58.1919C140.944 58.5373 141.429 58.6809 141.879 58.5583C142.331 58.4364 142.674 58.0717 142.762 57.6182C143.946 51.5268 147.895 45.0521 152.878 45.0521C157.953 45.0521 159.171 48.8075 160.235 53.7168C160.345 54.2235 160.769 54.6044 161.291 54.6665C161.811 54.7319 162.317 54.4559 162.545 53.9895C164.216 50.5714 166.364 48.839 168.93 48.839C173.99 48.839 174.384 61.3591 174.384 65.1968L174.383 65.3227C165.54 65.8455 156.564 66.0981 147.871 66.3426C141.096 66.533 134.091 66.7307 127.196 67.0535C126.518 67.0858 125.995 67.6522 126.027 68.3204C126.058 68.9683 126.602 69.4735 127.253 69.4735C127.274 69.4735 127.292 69.4726 127.313 69.4718C134.184 69.1491 141.178 68.953 147.94 68.7626C157.031 68.5068 166.43 68.2421 175.686 67.6692C176.331 67.6288 176.834 67.1043 176.838 66.4677Z" fill="#868686"></path><path fill-rule="evenodd" clip-rule="evenodd" d="M97.9607 53.4795C97.9705 53.4844 97.9782 53.4886 97.9881 53.4935C97.9782 53.4886 97.9698 53.4837 97.9607 53.4795Z" fill="#525D7D"></path><path fill-rule="evenodd" clip-rule="evenodd" d="M60.7959 54.2331C60.7959 54.2331 60.7966 54.2324 60.7973 54.2324C60.7966 54.2324 60.7959 54.2331 60.7959 54.2331Z" fill="#525D7D"></path><path fill-rule="evenodd" clip-rule="evenodd" d="M58.4031 67.5112C58.4115 66.9302 57.9469 66.4523 57.3659 66.4438C56.7757 66.4438 56.3062 66.9049 56.2978 67.481C56.2957 67.6467 56.2957 67.8123 56.2943 67.9779C56.2901 68.3807 56.2852 68.7835 56.2852 69.1863C56.2852 72.5631 56.4234 75.9814 56.5574 79.2867C56.615 80.7056 56.6725 82.1302 56.7202 83.5645C56.7392 84.1337 57.2066 84.5821 57.7715 84.5821C57.7834 84.5821 57.7953 84.5821 57.8073 84.5814C58.3883 84.5624 58.8438 84.0754 58.8241 83.4944C58.7764 82.0551 58.7188 80.6249 58.6613 79.2017C58.535 76.0958 58.4094 72.8916 58.396 69.7323C58.3953 69.5505 58.3904 69.3681 58.3904 69.1863C58.3904 68.6284 58.3946 68.0705 58.4031 67.5112Z" fill="#868686"></path><path fill-rule="evenodd" clip-rule="evenodd" d="M81.2899 56.6871C80.8681 56.3503 80.3418 56.1657 79.7783 56.1075C80.3685 55.9243 81.9944 55.3805 83.6049 54.9805C82.8358 55.5524 82.0618 56.1187 81.2899 56.6871ZM81.5369 49.6977C78.2667 50.3692 72.0527 51.5798 70.0057 54.4661C69.56 55.0949 69.5418 55.9861 69.8274 56.7608C69.6527 56.6156 69.4765 56.4731 69.3067 56.3229C68.1341 55.2871 66.2028 56.6008 67.0674 58.0506C68.925 61.1664 72.4302 62.4584 74.6155 65.2478C75.2358 66.0394 76.4471 65.9685 77.2443 65.5868C82.4534 63.097 87.3804 59.1573 91.7642 55.424C92.7081 54.6205 92.7306 53.1187 92.193 52.1033C90.172 48.2885 85.0478 48.977 81.5369 49.6977Z" fill="#E1E1E1"></path><path fill-rule="evenodd" clip-rule="evenodd" d="M99.7154 85.2857C99.0143 82.9643 99.161 80.4401 98.7112 78.0541C98.5898 77.4134 98.3238 76.8976 97.975 76.4773C98.7736 75.6738 99.502 74.8815 100.141 74.2029C102.754 71.4261 99.4599 67.1124 96.0817 68.9418C93.9771 70.0815 92.6684 71.9783 90.8831 73.4941C90.7147 73.6366 89.2234 74.4822 89.3989 74.7678C88.6915 74.5341 87.7603 73.8836 87.2262 73.6169C84.6571 72.3355 81.8494 69.8794 78.9055 69.7117C78.208 69.6717 77.7771 70.2057 77.7098 70.7959C77.5631 70.4906 77.4199 70.1657 77.2789 69.8148C76.6164 68.1685 73.8396 67.1432 72.9154 69.245C72.1406 71.0043 70.8024 72.5671 69.2115 73.751C66.3855 73.3615 63.5841 72.6071 60.9554 71.7867C60.3898 71.6106 59.9785 72.5243 60.5434 72.7636C62.6283 73.6464 64.7371 74.4667 66.8971 75.1074C66.681 75.205 66.4662 75.3089 66.2473 75.3917C65.5645 75.6513 65.6185 76.7187 66.4269 76.7222C67.9371 76.7285 69.1919 76.4268 70.3441 75.9489C70.8115 76.0352 71.2817 76.1117 71.7561 76.1748C72.9041 76.3264 74.0157 76.365 75.1133 76.3376C76.3968 78.0871 78.0789 79.3783 80.1792 79.8436C80.0389 81.3622 79.7883 82.8562 79.3771 84.2394C78.9659 85.6225 79.3287 86.7418 80.0662 87.5067H85.5147C85.5561 87.4646 85.6031 87.4324 85.6431 87.3881C85.6712 87.4289 85.7041 87.4667 85.7343 87.5067H99.7392C99.9462 86.8583 99.9645 86.1117 99.7154 85.2857Z" fill="#E1E1E1"></path><path fill-rule="evenodd" clip-rule="evenodd" d="M110.439 9.49609C110.005 9.48135 109.571 9.47363 109.136 9.47363C88.2164 9.47363 78.9272 29.2926 78.9272 36.8252C78.9272 39.4147 79.3125 42.0498 79.6844 44.5971C79.7672 45.1677 79.8522 45.748 79.9322 46.3284C80.1167 46.4392 80.2999 46.5494 80.4858 46.6603L80.6585 46.7628C81.062 46.2519 81.483 45.7628 81.9097 45.2821C81.862 44.9508 81.815 44.6189 81.7679 44.2926C81.4058 41.8203 81.0325 39.2624 81.0325 36.8252C81.0325 29.8722 89.6739 11.5789 109.136 11.5789C109.547 11.5789 109.958 11.5866 110.369 11.5992C110.943 11.6112 111.437 11.1635 111.456 10.5824C111.475 10.0021 111.02 9.51433 110.439 9.49609Z" fill="#868686"></path><path fill-rule="evenodd" clip-rule="evenodd" d="M80.4857 46.6604C80.2997 46.5495 80.1166 46.4393 79.932 46.3285C77.7776 45.0351 75.7664 43.746 74.2934 41.7376C73.9495 41.2695 73.292 41.1685 72.8225 41.5116C72.3538 41.8555 72.252 42.5144 72.5959 42.9832C74.4464 45.506 76.9678 47.012 79.4064 48.4674C79.7299 48.6611 80.0541 48.8548 80.3783 49.0513C80.5488 49.1551 80.7369 49.2043 80.9243 49.2043C81.2492 49.2043 81.5692 49.0534 81.7741 48.7734C83.0611 47.0141 84.5397 45.5053 86.1046 43.9081C86.8232 43.1748 87.546 42.4372 88.2534 41.6716C88.6478 41.2436 88.6211 40.5776 88.1938 40.1839C87.7664 39.7888 87.1011 39.8162 86.7067 40.2422C86.0127 40.9937 85.3053 41.7158 84.6008 42.4351C83.7025 43.3516 82.7895 44.2913 81.9095 45.2821C81.4829 45.7629 81.0618 46.252 80.6583 46.7629L80.4857 46.6604Z" fill="#868686"></path><path fill-rule="evenodd" clip-rule="evenodd" d="M80.6836 65.9927C85.8191 62.4475 91.2829 59.2692 96.5945 56.1829L97.5482 55.6285C96.9461 55.3219 96.2022 54.9548 95.2878 54.5078C89.8296 57.6783 84.2212 60.9534 78.9412 64.6433C79.0892 64.6833 79.2331 64.7436 79.3559 64.8482C79.8015 65.2292 80.2415 65.611 80.6836 65.9927Z" fill="#868686"></path><path fill-rule="evenodd" clip-rule="evenodd" d="M77.2178 67.9748C77.3083 67.9994 77.4002 68.0184 77.4936 68.0184C77.5623 68.0184 77.629 67.9994 77.6964 67.9861C77.695 67.8689 77.6936 67.7517 77.6915 67.6338C77.5343 67.7475 77.3764 67.8598 77.2178 67.9748Z" fill="#525D7D"></path><path fill-rule="evenodd" clip-rule="evenodd" d="M61.2397 56.3846C65.1583 59.2997 69.0313 62.1151 72.7808 64.8394C73.6433 65.4653 74.5043 66.0927 75.3654 66.7194C75.9738 66.2737 76.5717 65.8436 77.164 65.4232C76.1155 64.6604 75.0678 63.899 74.018 63.1362C70.5254 60.5994 66.9254 57.9797 63.2847 55.2808C62.8082 55.5383 62.3282 55.7973 61.8559 56.0527C61.6531 56.1629 61.4433 56.2752 61.2397 56.3846Z" fill="#868686"></path><path fill-rule="evenodd" clip-rule="evenodd" d="M77.6649 65.704C77.6558 65.123 78.119 64.6437 78.7007 64.6346C79.2726 64.6367 79.7604 65.0886 79.7702 65.6697C79.7828 66.45 79.7912 67.2311 79.8025 68.0107C80.0418 68.2177 80.2825 68.4247 80.5218 68.6318C82.9702 70.7497 85.5021 72.9398 88.1028 74.9735C88.4663 75.2577 88.9723 75.2725 89.3512 75.0093C91.2537 73.6886 93.1576 72.3272 94.999 71.01C98.474 68.5244 102.067 65.9532 105.722 63.6142C105.974 63.4535 106.145 63.1932 106.193 62.8991C106.242 62.6044 106.163 62.3026 105.976 62.0696C104.009 59.6114 103.221 58.2353 102.701 57.3251C101.712 55.5967 101.359 55.1847 97.9877 53.4935C97.1618 53.0795 96.1968 52.6079 95.0123 52.0304C93.0944 51.0949 90.5786 49.8675 87.2488 48.2023C86.7295 47.9426 86.0972 48.1532 85.8368 48.6725C85.5765 49.1932 85.7877 49.8247 86.307 50.0851C89.6453 51.7539 92.1667 52.984 94.0895 53.9223C94.5232 54.1342 94.9154 54.3258 95.2881 54.5075C96.2025 54.9553 96.9463 55.3216 97.5477 55.6289C100.025 56.8928 100.2 57.1939 100.873 58.3707C101.358 59.217 102.059 60.4423 103.615 62.4704C100.253 64.6633 96.9639 67.0156 93.7744 69.2977C92.1456 70.4619 90.4677 71.6626 88.7898 72.8346C86.4411 70.9686 84.1351 68.9735 81.8986 67.0388C81.4958 66.69 81.0881 66.3412 80.6839 65.9925C80.2411 65.6107 79.8011 65.2289 79.3561 64.8479C79.2333 64.7433 79.0895 64.683 78.9407 64.643C78.6481 64.5651 78.3302 64.603 78.0698 64.784C77.7695 64.9932 77.467 65.2086 77.1639 65.4233C76.5716 65.843 75.9737 66.2739 75.366 66.7188C72.8032 68.5953 70.079 70.7118 66.9983 73.217C62.4712 70.6395 58.4558 67.1019 54.5674 63.676C53.6909 62.904 52.794 62.1139 51.8895 61.3328C55.0544 59.7293 58.1842 58.0388 61.2397 56.3847C61.4432 56.2746 61.653 56.1623 61.8558 56.0528C62.3288 55.7974 62.8088 55.5384 63.2846 55.2802C66.8411 53.3574 70.4853 51.4058 74.1407 49.6219C74.6628 49.3679 74.8797 48.737 74.6249 48.2149C74.3709 47.6921 73.7414 47.4753 73.2172 47.7307C69.0326 49.7714 64.874 52.024 60.853 54.2016C60.8347 54.2121 60.8158 54.2219 60.7968 54.2318C57.1274 56.2191 53.3365 58.2718 49.5323 60.1602C49.2144 60.3174 48.9976 60.6247 48.9547 60.977C48.9126 61.3286 49.0502 61.6788 49.3211 61.9075C50.6165 63.0002 51.9176 64.1468 53.1758 65.2556C54.2032 66.1616 55.2404 67.0746 56.2937 67.9777C56.2958 67.8121 56.2951 67.6472 56.2979 67.4809C56.3063 66.9047 56.7758 66.4437 57.3498 66.4437C57.947 66.4521 58.4109 66.93 58.4032 67.5111C58.3947 68.0704 58.3905 68.6282 58.3905 69.1861C58.3905 69.3679 58.3954 69.5504 58.3961 69.7321C60.9681 71.8311 63.6649 73.8079 66.6074 75.4086C66.7646 75.4942 66.9379 75.537 67.1098 75.537C67.3477 75.537 67.5842 75.4563 67.7765 75.2991C71.3056 72.4149 74.3583 70.0458 77.2179 67.9742C77.3765 67.8591 77.5337 67.7468 77.6916 67.6332C77.6818 66.9904 77.6754 66.3475 77.6649 65.704Z" fill="#868686"></path><mask id="mask0_662_23183" maskUnits="userSpaceOnUse" x="77" y="64" width="4" height="24" style="mask-type: alpha;"><path d="M77.6648 64.6348H80.1091V87.5067H77.6648V64.6348Z" fill="white"></path></mask><g mask="url(#mask0_662_23183)"><path fill-rule="evenodd" clip-rule="evenodd" d="M79.8776 73.4572C79.8544 71.6418 79.8284 69.8263 79.8025 68.0109C79.7912 67.2313 79.7828 66.4509 79.7702 65.6699C79.7604 65.0888 79.2726 64.6376 78.7007 64.6348C78.119 64.6439 77.6558 65.1232 77.6649 65.7042C77.6755 66.3477 77.6825 66.9906 77.6916 67.6334C77.6937 67.7513 77.6951 67.8684 77.6965 67.9856C77.7232 69.8179 77.7498 71.6509 77.7723 73.4832C77.8298 78.079 77.8895 82.8292 78.006 87.507H80.1091C79.9948 82.8081 79.9351 78.0544 79.8776 73.4572Z" fill="#868686"></path></g><mask id="mask1_662_23183" maskUnits="userSpaceOnUse" x="49" y="86" width="62" height="4" style="mask-type: alpha;"><path d="M110.238 86.647V89.0913H49.2457V86.647H110.238Z" fill="white"></path></mask><g mask="url(#mask1_662_23183)"><path fill-rule="evenodd" clip-rule="evenodd" d="M86.711 88.8597C91.5522 88.8366 96.3933 88.8106 101.235 88.7846C103.314 88.7734 105.395 88.765 107.477 88.7524C109.027 88.7425 110.23 88.2548 110.238 87.6829C110.213 87.1011 108.935 86.638 107.386 86.6471C105.67 86.6576 103.955 86.6646 102.241 86.6738C101.927 86.6759 101.614 86.6773 101.302 86.6787C96.4158 86.7054 91.5278 86.732 86.6418 86.7545C74.3863 86.812 61.7192 86.8717 49.2448 86.9882V89.0913C61.7753 88.9769 74.4518 88.9173 86.711 88.8597Z" fill="#868686"></path></g><path fill-rule="evenodd" clip-rule="evenodd" d="M101.909 72.7711C101.909 71.4848 101.97 70.2967 102.094 69.1395C102.156 68.5613 101.738 68.0427 101.16 67.9809C100.579 67.915 100.063 68.3367 100.001 68.915C99.8688 70.1479 99.8042 71.409 99.8042 72.7711C99.8042 75.7213 100.114 78.6371 100.415 81.4581C100.626 83.4441 100.838 85.4897 100.94 87.5065H103.048C102.946 85.3985 102.727 83.2848 102.509 81.235C102.214 78.4693 101.909 75.6097 101.909 72.7711Z" fill="#868686"></path><mask id="mask2_662_23183" maskUnits="userSpaceOnUse" x="134" y="7" width="16" height="12" style="mask-type: alpha;"><path d="M134.211 7.40137H149.318V18.1578H134.211V7.40137Z" fill="white"></path></mask><g mask="url(#mask2_662_23183)"><path fill-rule="evenodd" clip-rule="evenodd" d="M144.266 8.38297C142.937 9.78021 141.608 11.6113 139.93 12.5517C138.09 13.5832 137.38 12.4356 136.053 11.0669C135.355 10.3457 134.299 10.9149 134.229 11.8599C133.974 15.2789 136.475 18.3349 139.824 18.1498C143.183 17.9647 146.482 15.5073 148.551 12.8814C150.991 9.78113 147.076 5.43284 144.266 8.38297Z" fill="#E1E1E1"></path></g><mask id="mask3_662_23183" maskUnits="userSpaceOnUse" x="136" y="1" width="12" height="12" style="mask-type: alpha;"><path d="M136.018 1.60889H147.863V12.9192H136.018V1.60889Z" fill="white"></path></mask><g mask="url(#mask3_662_23183)"><path fill-rule="evenodd" clip-rule="evenodd" d="M145.336 7.02915C145.336 7.06073 144.956 10.2123 141.755 10.2123C140.273 10.2123 138.545 9.37862 138.545 7.02554C138.545 6.24689 138.748 4.90524 140.113 4.67968C140.409 4.63095 140.697 4.55787 140.981 4.48389C141.327 4.39276 141.626 4.31517 141.873 4.31517C142.551 4.31968 145.336 5.54674 145.336 7.02915ZM140.384 1.85381C140.169 1.90885 139.952 1.9684 139.729 2.00539C137.474 2.37712 136.018 4.34765 136.018 7.02554C136.018 10.4956 138.377 12.9191 141.755 12.9191C146.071 12.9191 147.863 9.08268 147.863 7.02915C147.863 3.47246 143.412 1.6084 141.873 1.6084C141.324 1.6084 140.824 1.73923 140.384 1.85381Z" fill="#868686"></path></g></svg>