<svg width="143" height="50" viewBox="0 0 143 50" fill="none" xmlns="http://www.w3.org/2000/svg"><rect y="0.871094" width="143" height="48.4746" rx="9.69492" fill="black"></rect><path d="M107.922 30.7448C107.372 30.7448 106.87 30.6435 106.415 30.4404C105.958 30.2349 105.563 29.9116 105.271 29.5037H105.178C105.24 29.997 105.271 30.4654 105.271 30.9067V34.3813H103.992V22.1454H105.032L105.209 23.3015H105.271C105.6 22.8392 105.983 22.5053 106.42 22.2996C106.856 22.0944 107.357 21.9916 107.922 21.9916C109.042 21.9916 109.906 22.3744 110.515 23.1396C111.123 23.9053 111.429 24.9789 111.429 26.3606C111.429 27.7484 111.119 28.8251 110.5 29.5938C109.88 30.361 109.021 30.7448 107.922 30.7448V30.7448ZM107.737 23.078C106.874 23.078 106.25 23.3168 105.865 23.7948C105.479 24.2728 105.281 25.0329 105.271 26.076V26.3611C105.271 27.5478 105.469 28.3969 105.865 28.9081C106.26 29.4197 106.894 29.6753 107.768 29.6753C108.498 29.6753 109.069 29.38 109.483 28.7894C109.896 28.1989 110.103 27.3844 110.103 26.3463C110.103 25.2935 109.897 24.4851 109.483 23.9226C109.069 23.359 108.487 23.078 107.737 23.078V23.078ZM114.39 30.5906H113.11V18.6006H114.39V30.5906ZM121.744 30.5906L121.489 29.3886H121.427C121.006 29.9181 120.586 30.2765 120.167 30.4633C119.749 30.6512 119.225 30.7448 118.599 30.7448C117.761 30.7448 117.105 30.529 116.631 30.0978C116.155 29.6666 115.918 29.0526 115.918 28.2564C115.918 26.551 117.282 25.6581 120.01 25.5746L121.443 25.5282V25.0044C121.443 24.3416 121.301 23.8523 121.015 23.5367C120.729 23.2205 120.274 23.0627 119.647 23.0627C118.942 23.0627 118.147 23.2786 117.258 23.7098L116.865 22.7313C117.282 22.5053 117.738 22.3281 118.234 22.1998C118.73 22.0715 119.226 22.0074 119.726 22.0074C120.732 22.0074 121.478 22.2309 121.963 22.6779C122.449 23.1248 122.691 23.8416 122.691 24.8277V30.5916H121.744V30.5906H121.744ZM118.854 29.6895C119.649 29.6895 120.275 29.4711 120.73 29.0348C121.185 28.5985 121.413 27.9866 121.413 27.2001V26.4375L120.133 26.4904C119.116 26.5266 118.383 26.6849 117.933 26.9654C117.483 27.2454 117.259 27.6801 117.259 28.2707C117.259 28.7329 117.398 29.0852 117.679 29.326C117.959 29.5689 118.35 29.6895 118.854 29.6895ZM123.434 22.1454H124.805L126.655 26.9613C127.06 28.0604 127.313 28.8546 127.41 29.3428H127.472C127.538 29.0801 127.678 28.6321 127.891 27.9968C128.104 27.363 128.802 25.4122 129.983 22.1443H131.355L127.725 31.761C127.365 32.7109 126.945 33.385 126.464 33.7846C125.984 34.1822 125.394 34.3813 124.696 34.3813C124.305 34.3813 123.92 34.3375 123.54 34.2504V33.2266C123.852 33.2913 124.169 33.3223 124.488 33.3193C125.366 33.3193 125.992 32.826 126.368 31.8399L126.837 30.6384L123.434 22.1454V22.1454Z" fill="white"></path><path d="M84.2267 22.9318C84.6335 23.2678 85.4806 23.9739 85.4806 25.3169C85.4806 26.6227 84.7388 27.2423 83.9971 27.8247C83.7675 28.0537 83.5018 28.3022 83.5018 28.6911C83.5018 29.079 83.767 29.2913 83.961 29.4502L84.5973 29.944C85.3747 30.5976 86.0808 31.1989 86.0808 32.4176C86.0808 34.0783 84.4731 35.7562 81.4354 35.7562C78.8731 35.7562 77.6371 34.5375 77.6371 33.2296C77.6371 32.5938 77.9542 31.6927 78.9974 31.0747C80.0919 30.4042 81.5764 30.3161 82.3711 30.2616C82.1237 29.944 81.8411 29.6085 81.8411 29.0622C81.8411 28.7619 81.9302 28.5847 82.0183 28.3729C81.8233 28.3908 81.6293 28.4081 81.4527 28.4081C79.5808 28.4081 78.5209 27.0127 78.5209 25.6356C78.5209 24.8226 78.892 23.9215 79.651 23.2683C80.6585 22.438 81.8595 22.2965 82.814 22.2965H86.4519L85.3212 22.9323H84.2267V22.9318ZM82.9723 30.7753C82.8318 30.7575 82.7422 30.7575 82.5666 30.7575C82.4077 30.7575 81.4527 30.7926 80.7104 31.0416C80.322 31.1811 79.1913 31.6056 79.1913 32.8605C79.1913 34.1134 80.4111 35.0155 82.3013 35.0155C83.9956 35.0155 84.8977 34.201 84.8977 33.1069C84.8977 32.2038 84.3153 31.7293 82.9723 30.7753ZM83.485 27.4184C83.8907 27.0116 83.9253 26.4471 83.9253 26.1289C83.9253 24.8572 83.1663 22.8789 81.7006 22.8789C81.2409 22.8789 80.7466 23.1085 80.463 23.4623C80.1637 23.8334 80.0741 24.3099 80.0741 24.7696C80.0741 25.9527 80.7634 27.9137 82.2835 27.9137C82.7254 27.9132 83.2004 27.7015 83.485 27.4184V27.4184ZM73.1062 30.4923C70.3027 30.4923 68.8034 28.3052 68.8034 26.3295C68.8034 24.0182 70.6901 22.0445 73.372 22.0445C75.9627 22.0445 77.5862 24.0722 77.5862 26.2068C77.5857 28.2869 75.982 30.4923 73.1062 30.4923V30.4923ZM75.3095 29.0638C75.7341 28.4992 75.8395 27.7941 75.8395 27.1048C75.8395 25.5526 75.0993 22.5902 72.9123 22.5902C72.3287 22.5955 71.7662 22.8085 71.3254 23.1909C70.6377 23.8074 70.5134 24.5838 70.5134 25.3429C70.5134 27.088 71.3779 29.9618 73.5125 29.9618C74.1997 29.9623 74.9048 29.6278 75.3095 29.0638V29.0638ZM63.5471 30.4923C60.7431 30.4923 59.2438 28.3052 59.2438 26.3295C59.2438 24.0182 61.1315 22.0445 63.8123 22.0445C66.4046 22.0445 68.0271 24.0722 68.0271 26.2068C68.0266 28.2869 66.4219 30.4923 63.5471 30.4923ZM65.7514 29.0638C66.175 28.4992 66.2809 27.7941 66.2809 27.1048C66.2809 25.5526 65.5397 22.5902 63.3526 22.5902C62.7691 22.5956 62.2066 22.8085 61.7658 23.1909C61.078 23.8074 60.9548 24.5838 60.9548 25.3429C60.9548 27.088 61.8182 29.9618 63.9533 29.9618C64.6411 29.9623 65.3462 29.6278 65.7514 29.0638V29.0638ZM57.8962 30.2158L55.3605 30.8008C54.3316 30.9601 53.4097 31.1011 52.4353 31.1011C47.5409 31.1011 45.6797 27.5024 45.6797 24.6831C45.6797 21.2437 48.3208 18.0527 52.843 18.0527C53.8006 18.0527 54.7221 18.1943 55.5555 18.4249C56.8852 18.797 57.5058 19.2577 57.8962 19.524L56.424 20.925L55.8039 21.066L56.2473 20.3564C55.6445 19.7719 54.5444 18.6906 52.4531 18.6906C49.6516 18.6906 47.5414 20.8191 47.5414 23.9215C47.5414 27.254 49.953 30.3925 53.8179 30.3925C54.9537 30.3925 55.5376 30.1624 56.0701 29.9491V27.0956L53.3934 27.2367L54.8112 26.474H58.5703L58.1095 26.9164C57.9843 27.0239 57.9675 27.059 57.9319 27.2C57.9135 27.3599 57.8967 27.8751 57.8967 28.0522L57.8962 30.2158V30.2158Z" fill="white"></path><path d="M89.8326 29.7048C89.2472 29.6519 89.124 29.546 89.124 28.8526V18.817L89.1337 18.7024C89.2054 18.0824 89.3821 17.976 89.9324 17.6562H87.3967L86.0664 18.2946H87.4216V18.3028L87.4206 18.2962V29.2425C87.4206 29.5959 87.3508 29.6503 86.9431 30.1818H90.0816L90.7378 29.7924C90.4349 29.7577 90.1335 29.7409 89.8326 29.7048ZM97.0474 29.8682C96.8545 29.9746 96.6605 30.0978 96.467 30.1854C95.8847 30.4501 95.2865 30.5198 94.7575 30.5198C94.1955 30.5198 93.3148 30.4837 92.4152 29.8326C91.1659 28.9519 90.6202 27.4373 90.6202 26.1162C90.6202 23.3881 92.8388 22.0497 94.6532 22.0497C95.2865 22.0497 95.9386 22.208 96.467 22.543C97.3467 23.1228 97.5763 23.8798 97.698 24.2851L93.5612 25.9584L92.205 26.0643C92.6443 28.3012 94.1588 29.6025 95.8322 29.6025C96.7302 29.6025 97.3824 29.2858 97.9811 28.987L97.0474 29.8682V29.8682ZM95.3929 24.62C95.7268 24.4968 95.903 24.3915 95.903 24.1451C95.903 23.441 95.1103 22.6305 94.1588 22.6305C93.4538 22.6305 92.1337 23.1768 92.1337 25.0782C92.1337 25.3776 92.1688 25.6942 92.1866 26.0119L95.3929 24.62V24.62ZM98.7462 22.1703V23.3321H98.6052V22.1703H98.2203V22.0502H99.1301V22.1703H98.7462V22.1703ZM100.33 23.3321V22.1591H100.324L99.966 23.3321H99.8555L99.4946 22.1591H99.49V23.3321H99.3617V22.0497H99.5816L99.909 23.0862H99.9131L100.235 22.0497H100.458V23.3321H100.33V23.3321Z" fill="white"></path><path d="M15.6347 37.5466L28.2923 24.8179L15.8432 12.2988C15.3465 12.6172 15 13.1669 15 13.8339V36.1664C15 36.7355 15.2522 37.2191 15.6347 37.5466Z" fill="url(#paint0_linear_1763_14609)"></path><path d="M38.049 23.4003C39.3178 24.0985 39.3178 25.9012 38.049 26.5994L32.9297 29.4165L28.293 24.8175L32.6933 20.4531L38.049 23.4003Z" fill="url(#paint1_linear_1763_14609)"></path><path d="M32.9272 29.4163L28.2904 24.8174L15.6328 37.5461C16.1894 38.0228 17.0219 38.1686 17.7544 37.7656L32.9272 29.4163Z" fill="url(#paint2_linear_1763_14609)"></path><path d="M15.8438 12.2986L28.2928 24.8177L32.6932 20.4533L17.7568 12.2342C17.111 11.8788 16.3874 11.9501 15.8438 12.2986Z" fill="url(#paint3_linear_1763_14609)"></path><defs><linearGradient id="paint0_linear_1763_14609" x1="23.6769" y1="19.874" x2="15.0711" y2="28.5506" gradientUnits="userSpaceOnUse"><stop stop-color="#00C3FF"></stop><stop offset="1" stop-color="#1BE2FA"></stop></linearGradient><linearGradient id="paint1_linear_1763_14609" x1="28.293" y1="24.8176" x2="39.7391" y2="24.8176" gradientUnits="userSpaceOnUse"><stop stop-color="#FFCE00"></stop><stop offset="1" stop-color="#FFEA00"></stop></linearGradient><linearGradient id="paint2_linear_1763_14609" x1="15.3674" y1="39.0999" x2="30.5931" y2="26.8932" gradientUnits="userSpaceOnUse"><stop stop-color="#DE2453"></stop><stop offset="1" stop-color="#FE3944"></stop></linearGradient><linearGradient id="paint3_linear_1763_14609" x1="16.1082" y1="10.9014" x2="30.598" y2="22.7365" gradientUnits="userSpaceOnUse"><stop stop-color="#11D574"></stop><stop offset="1" stop-color="#01F176"></stop></linearGradient></defs></svg>