<svg width="272" height="123" viewBox="0 0 272 123" fill="none" xmlns="http://www.w3.org/2000/svg"><path fill-rule="evenodd" clip-rule="evenodd" d="M90.8588 118.645C91.5183 118.739 92.1777 118.811 92.8365 118.872C92.7571 119.266 92.9192 119.717 93.3634 119.786C101.583 121.049 109.786 121.868 118.083 122.207C123.325 122.42 129.657 124.038 133.235 119.014C134.823 116.782 132.577 114.754 130.427 114.91C130.518 113.989 130.133 113.003 129.465 112.223C129.457 110.139 129.235 108.049 128.93 105.928C128.675 104.159 125.679 104.561 125.82 106.352C125.939 107.863 126.012 109.352 125.984 110.828C120.56 111.693 115.094 111.288 109.678 112.183C103.38 113.225 96.8424 114.213 90.8588 116.495C89.971 116.834 89.66 118.473 90.8588 118.645Z" fill="#FFEBDC"></path><path fill-rule="evenodd" clip-rule="evenodd" d="M103.203 19.7377C106.166 19.274 109.099 18.7409 112.04 18.3056C111.519 18.3981 111 18.4919 110.485 18.5844C107.512 19.1188 104.567 19.8309 101.558 20.1525C101 20.212 100.464 20.2404 99.9358 20.2549C101.037 20.0845 102.129 19.9055 103.203 19.7377ZM122.698 17.48C123.413 17.4945 123.947 17.2204 124.303 16.8016C124.299 16.8425 124.296 16.8841 124.29 16.9251C122.393 18.2944 119.981 17.6768 117.718 17.6781C117.526 17.6781 117.333 17.6867 117.141 17.692C118.978 17.5315 120.828 17.441 122.698 17.48ZM86.085 20.2827C88.1834 20.8567 90.3521 21.041 92.539 21.002C94.1513 23.1145 97.4411 23.4494 99.8948 23.5788C103.885 23.7895 107.93 23.349 111.887 22.8701C115.259 22.4618 118.335 22.7221 121.698 22.7538C124.717 22.7829 128.213 21.9235 128.416 18.3149C128.468 17.3795 128.001 16.7276 127.345 16.39C127.059 14.5999 126.317 12.8706 125.855 10.9927C125.579 9.87039 123.786 10.0837 123.843 11.2694C123.879 12.0066 123.997 12.7603 124.11 13.516C123.763 13.1983 123.297 12.9882 122.698 12.9849C116.555 12.9492 110.451 13.985 104.457 15.281C98.3696 16.5968 92.1225 17.5136 86.085 18.9887C85.4447 19.1459 85.4668 20.1136 86.085 20.2827Z" fill="#FFEBDC"></path><path fill-rule="evenodd" clip-rule="evenodd" d="M209.791 50.1712C213.433 49.6154 217.039 48.9755 220.653 48.4533C220.014 48.5638 219.375 48.6769 218.743 48.7874C215.087 49.4292 211.467 50.283 207.769 50.6695C207.085 50.7406 206.425 50.7749 205.775 50.793C207.13 50.5887 208.472 50.3729 209.791 50.1712ZM233.755 47.4625C234.632 47.4799 235.29 47.151 235.727 46.6481C235.722 46.6973 235.718 46.747 235.711 46.7962C233.379 48.4397 230.415 47.6984 227.632 47.7003C227.396 47.7003 227.159 47.7094 226.923 47.7165C229.182 47.5239 231.455 47.4153 233.755 47.4625ZM188.751 50.8259C191.329 51.5143 193.996 51.7353 196.684 51.6894C198.665 54.2242 202.709 54.6263 205.726 54.7814C210.629 55.0334 215.601 54.5048 220.464 53.9302C224.61 53.4416 228.391 53.7531 232.525 53.7919C236.236 53.8261 240.535 52.7946 240.782 48.4643C240.846 47.3416 240.273 46.5596 239.467 46.1544C239.114 44.006 238.202 41.9313 237.635 39.6776C237.296 38.3314 235.092 38.5867 235.161 40.0086C235.206 40.894 235.35 41.7982 235.49 42.705C235.064 42.3237 234.491 42.0722 233.755 42.0684C226.203 42.0251 218.7 43.2679 211.332 44.8236C203.851 46.4025 196.172 47.5026 188.751 49.2728C187.964 49.4609 187.99 50.623 188.751 50.8259Z" fill="#FFEBDC"></path><path fill-rule="evenodd" clip-rule="evenodd" d="M172.937 36.5424C172.33 37.0586 171.489 37.9165 170.677 38.3886C169.689 38.9622 169.904 38.5336 169.031 37.9644C168.673 37.7312 168.085 37.8787 167.891 38.2581C166.937 40.1271 169.122 41.6607 170.847 41.4495C172.684 41.2251 174.608 40.0703 175.473 38.4642C176.349 36.8373 174.319 35.3674 172.937 36.5424Z" fill="#FFEBDC"></path><path fill-rule="evenodd" clip-rule="evenodd" d="M269.382 92.4088C269.241 92.2604 269.083 92.1179 268.898 91.984C267.229 90.7869 265.872 88.752 264.061 87.6875C264.746 87.6756 265.432 87.7508 266.095 87.9203C268.397 88.512 269.66 90.4221 269.382 92.4088ZM260.625 98.347C260.668 98.3114 260.709 98.2751 260.752 98.2402C262.306 97.5087 263.884 96.8109 265.389 95.9699C265.636 96.1453 265.901 96.3036 266.191 96.4402C264.564 97.4032 262.628 97.9447 260.625 98.347ZM258.377 88.3734C257.808 88.8661 257.296 89.4519 256.843 90.0653C259.056 85.7879 261.453 81.6114 262.568 76.8201C262.724 76.1487 261.747 75.656 261.421 76.3301C259.299 80.7123 256.089 84.3308 253.065 88.0931C251.067 86.3129 249.281 84.2642 247.793 82.0295C247.315 81.3113 246.285 81.9286 246.653 82.7056C247.322 84.1204 248.12 85.4449 248.964 86.7416C248.94 86.737 248.914 86.7535 248.929 86.7819C249.074 87.0747 249.217 87.3676 249.362 87.6617C249.381 87.6993 249.438 87.6664 249.419 87.6274C249.292 87.3702 249.166 87.1143 249.039 86.857C249.438 87.4665 249.845 88.0713 250.254 88.6755C250.048 88.6854 249.869 88.8958 250.001 89.1155C250.401 89.7843 250.643 90.5151 250.412 91.2816C250.403 91.3112 250.403 91.3409 250.397 91.3713C248.862 89.5759 247.596 87.2521 246.423 85.5016C244.337 82.387 241.066 76.6625 244.515 73.4648C244.927 73.0842 244.405 72.515 243.955 72.7287C239.046 75.0637 240.876 81.2704 242.598 85.2127C243.59 87.4863 244.915 89.6088 246.095 91.7855C246.792 93.071 247.428 94.5181 248.3 95.7232C248.464 98.8536 252.649 99.903 253.88 96.553C254.402 95.1335 255.015 93.759 255.669 92.4055C255.638 93.8572 257.308 95.0056 258.747 94.2411C258.787 94.22 258.827 94.2035 258.867 94.1817C259.07 94.4845 259.36 94.7351 259.691 94.8921C259.507 95.0742 259.324 95.2569 259.132 95.4323C258.189 95.9969 257.279 96.6183 256.422 97.3174C254.84 98.1769 253.327 99.1563 251.986 100.445C250.942 101.447 252.016 103.397 253.415 102.933C259.498 100.915 272.142 100.751 271.999 91.4827C271.893 84.6316 262.108 84.032 258.377 88.3734Z" fill="#FFEBDC"></path><path fill-rule="evenodd" clip-rule="evenodd" d="M26.3945 112.269C27.1674 112.357 27.9404 112.437 28.7113 112.535C28.4898 113.999 28.6687 115.417 29.4882 116.877C30.0188 117.821 31.4432 118.417 32.5286 118.058C35.3442 117.129 37.4497 115.547 39.3526 113.383C41.8382 110.556 37.8196 106.532 35.0378 109.264C34.4903 109.802 33.9496 110.369 33.3934 110.924C33.4642 109.887 32.3693 108.871 31.296 108.927C29.522 109.02 27.7669 109.319 26.0118 109.569C24.2654 109.816 24.9384 112.102 26.3945 112.269Z" fill="#FFEBDC"></path><path fill-rule="evenodd" clip-rule="evenodd" d="M50.7231 72.6333C50.1821 73.1675 49.6852 73.7732 49.1798 74.3304C49.0646 74.3783 48.9507 74.4302 48.8349 74.4767C48.5961 74.5752 48.4938 74.8012 48.4906 75.0325C47.6105 75.8487 46.6373 76.3694 45.3172 76.0045C44.7917 75.8595 44.2954 76.6662 44.8008 77.0257C48.2169 79.4565 50.2637 77.0297 53.2125 74.5786C53.408 74.416 53.6079 74.2643 53.8079 74.1125C55.6243 73.467 57.4336 72.7919 59.25 72.1335C59.6797 71.9771 59.9062 71.5872 59.9593 71.1926C59.969 71.1899 59.978 71.1866 59.9877 71.1852C60.6808 71.0139 61.3829 70.9033 62.0876 70.8122C61.5162 70.8655 61.2522 71.7511 61.8391 71.9818C66.5274 73.8198 72.0873 72.5909 77.0442 72.0162C79.2159 71.7653 78.8108 67.8019 76.5757 68.293C71.8143 69.3391 66.9843 70.5943 62.1698 70.8021C63.9726 70.5741 65.7929 70.4777 67.5343 69.9003C69.2291 69.3378 69.1857 66.9183 67.5136 66.6162C63.8277 65.9504 59.14 67.2542 55.6528 69.0437C53.8836 69.9509 52.1908 71.1852 50.7231 72.6333Z" fill="#FFEBDC"></path><path fill-rule="evenodd" clip-rule="evenodd" d="M108.514 68.7672C109.182 68.6029 109.852 68.4743 110.524 68.3773C108.835 68.8344 107.388 69.5488 105.653 70.3027C104.236 70.9187 102.434 71.2933 101.699 72.8677C101.603 73.0729 101.728 73.3248 101.909 73.3908C103.574 73.9937 105.728 72.9007 107.53 73.0663C110.061 73.2985 112.531 73.1362 115.104 72.9344C119.049 72.6263 122.96 72.6316 126.896 72.5228C133.511 72.3407 142.594 71.9984 146.078 64.3915C146.972 62.4405 144.256 61.029 143.092 62.767C141.167 65.646 137.327 66.4309 134.339 66.9256C130.771 67.5166 127.184 67.4698 123.621 67.4698C120.17 67.4698 116.633 67.4698 113.164 67.9018C113.739 67.3253 113.494 66.0794 112.51 66.3122C111.059 66.6552 109.63 67.107 108.241 67.7158C107.674 67.9644 107.928 68.9109 108.514 68.7672Z" fill="#FFEBDC"></path><path fill-rule="evenodd" clip-rule="evenodd" d="M49.8721 67.9273C46.9064 68.9002 45.3422 68.6209 43.9332 65.9712C42.9492 64.1195 42.1736 62.1616 41.0452 60.3932C40.7224 59.8886 39.9876 60.4575 40.1558 60.9614C41.0819 63.7275 41.0418 66.9843 42.7054 69.4296C44.4378 71.9775 47.4035 72.2371 50.342 71.2731C52.4599 70.5776 52.0193 67.2229 49.8721 67.9273Z" fill="#FFEBDC"></path><path fill-rule="evenodd" clip-rule="evenodd" d="M69.215 88.7087C76.1816 89.0665 81.2668 85.6353 86.7573 81.2408C86.5599 82.7817 87.6437 84.5012 89.4009 84.0401C92.9204 83.1179 96.0128 81.1453 99.629 80.7672C103.761 80.3368 107.91 79.9856 112.034 79.3689C120.606 78.0863 128.621 74.6158 137.059 72.6805C137.49 72.5824 137.391 71.9395 136.969 71.9924C128.196 73.0906 119.263 73.7617 110.479 74.3117C106.478 74.5616 102.429 74.9998 98.43 75.472C95.6798 75.7958 93.2613 76.9332 90.7908 78.1091C97.2296 73.3058 103.997 69.0734 110.086 63.6958C110.483 63.3452 110.117 62.6807 109.648 62.9247C102.11 66.8411 94.661 70.6562 87.5944 75.5773C81.8439 79.5808 76.6732 84.7092 69.6309 85.1409C67.5105 85.271 66.9959 88.5949 69.215 88.7087Z" fill="#FFEBDC"></path><path fill-rule="evenodd" clip-rule="evenodd" d="M118.834 52.5428C121.249 54.3633 123.916 56.5177 126.783 57.3194C129.564 58.098 132.534 57.9684 135.381 58.392C137.748 58.7428 138.05 54.6314 135.833 54.1336C133.053 53.5104 130.16 54.1588 127.373 53.5987C124.619 53.0455 122.079 51.5521 119.273 51.2811C118.699 51.2258 118.361 52.185 118.834 52.5428Z" fill="#FFEBDC"></path><path fill-rule="evenodd" clip-rule="evenodd" d="M75.4588 73.5949C74.5769 73.9451 73.6711 74.2496 72.7535 74.5132C72.4292 74.0231 71.8802 73.6982 71.0742 73.7384C65.7919 74.0008 60.4091 73.9179 55.1275 74.5249C52.6462 74.8102 53.209 78.9189 55.5133 78.3509C60.6496 78.203 66.0013 79.6386 71.1066 78.4492C72.6683 78.086 73.358 76.3534 73.0158 75.0942C73.901 74.7922 74.7797 74.4488 75.651 74.041C75.9536 73.8987 75.7613 73.4748 75.4588 73.5949Z" fill="#FFEBDC"></path><path fill-rule="evenodd" clip-rule="evenodd" d="M48.3859 72.5258C48.366 72.581 48.3405 72.6328 48.3122 72.682C50.0514 70.5097 51.473 68.2207 52.5387 65.8234C52.7387 65.374 52.5394 64.8754 52.0949 64.71C51.6567 64.5427 51.1284 64.7756 50.9278 65.225C49.9926 67.331 48.7624 69.3518 47.2656 71.2813C47.462 71.3384 47.6577 71.3961 47.8577 71.4538C48.3157 71.5844 48.5525 72.0653 48.3859 72.5258Z" fill="#F68220"></path><path fill-rule="evenodd" clip-rule="evenodd" d="M46.8054 73.0747C46.4232 72.9564 46.0482 72.8376 45.6773 72.7141C44.4057 74.2792 42.9655 75.7786 41.3467 77.2005C41.1106 77.4074 40.9903 77.724 41.0306 78.03C41.0703 78.3321 41.2608 78.5784 41.5312 78.6756C48.9101 81.237 51.9321 79.0625 55.7574 76.3106C58.4685 74.3606 61.5407 72.1506 67.08 70.8298C67.5297 70.7234 67.8372 70.2571 67.7671 69.7902C67.697 69.3212 67.2764 69.029 66.8268 69.1373C60.9615 70.5349 57.599 72.9532 54.8965 74.8972C51.4612 77.3693 49.1078 79.0618 43.4978 77.4527C45.0511 75.9835 46.4291 74.4368 47.6471 72.8271C47.4276 73.0596 47.1069 73.1673 46.8054 73.0747Z" fill="#F68220"></path><path fill-rule="evenodd" clip-rule="evenodd" d="M77.7999 70.7811C77.5457 71.0919 77.2811 71.3986 77.0223 71.7074C77.1375 71.6961 77.2534 71.6875 77.3686 71.6762C77.8223 71.6299 78.1982 71.9817 78.21 72.4627C78.2153 72.6694 78.1501 72.8629 78.0415 73.0232C78.3615 72.6422 78.6867 72.2646 79.0007 71.8803C79.3391 71.4669 79.6611 70.9852 80.0331 70.4267C82.6363 66.5236 87.4292 59.3389 109.699 62.9173C102.925 69.036 96.7794 73.1073 91.3176 76.7248C86.5872 79.8574 82.4888 82.5725 78.9988 85.9343C75.0657 86.2006 71.0437 86.0814 67.4404 85.9078C69.6769 82.701 72.2959 79.6898 74.8372 76.7666C75.8531 75.5985 76.888 74.3947 77.9111 73.1789C77.7742 73.3094 77.603 73.4002 77.4128 73.4194C76.7504 73.4883 76.0855 73.5413 75.4225 73.6023C74.8372 74.282 74.2513 74.9598 73.6739 75.6237C70.7566 78.9782 67.74 82.4466 65.2599 86.2443C65.088 86.508 65.0531 86.8393 65.1697 87.1156C65.2553 87.3203 65.4146 87.4707 65.6081 87.5423C65.676 87.5668 65.7484 87.582 65.8241 87.5853C69.9073 87.8 74.6515 87.9994 79.2944 87.6615C79.4886 87.647 79.6775 87.5588 79.8257 87.4144C83.2407 84.0699 87.3495 81.3475 92.1076 78.1957C97.9855 74.3032 104.647 69.8907 112.062 62.9763C112.305 62.7491 112.416 62.4019 112.347 62.0805C112.278 61.7605 112.043 61.524 111.736 61.469C86.996 57.0717 81.6132 65.1415 78.7209 69.4772C78.3766 69.994 78.079 70.4393 77.7999 70.7811Z" fill="#F68220"></path><path fill-rule="evenodd" clip-rule="evenodd" d="M78.1787 73.1926C78.2275 73.1495 78.2711 73.1008 78.3094 73.0477C78.4183 72.8979 78.4836 72.7179 78.4783 72.5262C78.4671 72.0786 78.0896 71.7512 77.6348 71.7938C77.5192 71.8049 77.4031 71.8129 77.2876 71.8233C72.0075 72.3196 66.6588 72.5841 61.4818 72.8363C61.0276 72.8585 60.652 73.2407 60.6428 73.6908C60.6349 74.036 60.8461 74.3208 61.1504 74.4238C61.2415 74.4552 61.3418 74.4694 61.4461 74.4645C66.1077 74.237 70.9065 73.9929 75.6835 73.5866C76.3489 73.5299 77.0149 73.4805 77.679 73.4164C77.8697 73.3985 78.0414 73.3141 78.1787 73.1926Z" fill="#F68220"></path><path fill-rule="evenodd" clip-rule="evenodd" d="M106.648 50.1483C106.981 50.4482 107.005 51.0013 106.703 51.3823C106.4 51.7652 105.886 51.8291 105.552 51.5292L105.406 51.3969C104.969 51.0013 104.512 50.5898 103.975 50.1643C98.26 50.7021 92.5356 51.5153 87.131 52.3949C87.216 52.464 87.2971 52.5312 87.3821 52.601C87.7281 52.8842 87.7752 53.4334 87.4881 53.8276C87.2546 54.1487 86.8713 54.2677 86.5508 54.1494C86.4769 54.1221 86.4062 54.0823 86.3415 54.0291C85.8261 53.6069 85.3205 53.1907 84.8188 52.7785C81.158 53.3955 77.6698 54.0291 74.4727 54.6108C65.4674 56.2503 57.6892 57.6658 55.572 56.8833C52.0387 55.5782 51.0916 52.1848 49.8933 47.8885C49.6834 47.1379 49.4688 46.3686 49.234 45.5914C49.1267 45.2344 48.8148 45.0117 48.4596 45.0383C47.0906 45.1393 45.6974 45.3275 44.3507 45.509C42.9837 45.6938 41.5696 45.8846 40.1803 45.9844C39.7454 46.0163 39.3856 46.4105 39.3641 46.8799C38.6773 61.7673 40.8272 70.2388 45.755 72.0592C45.9682 72.1376 46.1847 72.2107 46.4012 72.2839C46.7688 72.4082 47.1397 72.5292 47.5171 72.6489C47.8153 72.742 48.1332 72.6329 48.3497 72.3982C48.404 72.3397 48.4531 72.2759 48.4923 72.2028C48.5185 72.1529 48.5427 72.1004 48.5603 72.0445C48.714 71.5771 48.4962 71.0905 48.0737 70.9582C47.8892 70.8997 47.7087 70.8412 47.5269 70.7826C47.1364 70.6563 46.7499 70.5287 46.3777 70.3911C43.52 69.3353 40.287 64.5197 40.9548 47.6744C42.1308 47.5654 43.3009 47.4071 44.4397 47.2536C45.566 47.1013 46.725 46.9457 47.8605 46.8414C48.024 47.4025 48.1783 47.957 48.3307 48.5015C49.5473 52.8616 50.6959 56.9797 54.9493 58.5514C57.4433 59.4722 64.6538 58.1604 74.6323 56.3441C86.2538 54.2292 101.698 51.4222 115.524 51.2752C115.444 51.117 115.356 50.9654 115.283 50.8012C115.093 50.3777 115.269 49.8418 115.675 49.6058C115.76 49.5566 115.847 49.5347 115.934 49.518C112.824 49.542 109.638 49.6969 106.431 49.9522C106.454 49.9728 106.478 49.9954 106.501 50.0167L106.648 50.1483Z" fill="#F68220"></path><path fill-rule="evenodd" clip-rule="evenodd" d="M116.405 49.9282C116.619 50.4029 116.876 50.841 117.157 51.259C124.098 51.3184 130.56 52.0965 135.829 54.0368C140.874 55.895 145.94 60.3603 145.501 61.5318C145.328 61.9932 145.172 62.4739 145.014 62.962C144.862 63.4334 144.709 63.9121 144.533 64.3815C141.49 72.5113 111.113 72.654 101.131 72.7007L100.755 72.702C100.304 72.7047 99.9141 73.1007 99.8839 73.5875C99.8543 74.0749 100.196 74.4683 100.647 74.4656L101.022 74.4636C120.359 74.3729 142.952 73.2088 146.047 64.9396C146.236 64.4335 146.4 63.9248 146.559 63.4334C146.707 62.9747 146.852 62.5226 147.015 62.0892C148.281 58.7054 140.188 53.7387 136.456 52.3639C130.644 50.2236 123.465 49.4541 115.805 49.4968C116.058 49.5261 116.288 49.6681 116.405 49.9282Z" fill="#F68220"></path><path fill-rule="evenodd" clip-rule="evenodd" d="M115.119 50.7997C115.193 50.9653 115.281 51.1182 115.361 51.2778C116.63 53.8019 118.7 55.5857 121.694 56.7015C125.446 58.0997 130.038 58.2097 134.089 58.3069C135.225 58.3338 136.299 58.3599 137.321 58.4122C137.767 58.4344 138.172 58.0561 138.224 57.5673C138.277 57.0777 137.957 56.664 137.51 56.6405C136.469 56.5875 135.386 56.5621 134.239 56.5339C130.303 56.4393 125.841 56.3321 122.316 55.019C120.086 54.1875 118.452 52.9509 117.34 51.2751C117.062 50.8547 116.807 50.4141 116.594 49.9366C116.478 49.6751 116.249 49.5323 115.998 49.5021C115.923 49.494 115.849 49.4907 115.771 49.5048C115.684 49.5222 115.596 49.5443 115.512 49.5933C115.105 49.832 114.929 50.3718 115.119 50.7997Z" fill="#F68220"></path><path fill-rule="evenodd" clip-rule="evenodd" d="M87.5077 56.4988C87.4786 56.0131 87.124 55.6777 86.7172 55.7468C86.5105 55.7817 86.0015 55.9501 85.7337 56.7464C85.3892 57.7728 85.8043 58.8247 86.6994 59.1924C87.184 59.3909 88.4912 59.4379 88.8481 58.3739C88.8683 58.3155 88.8944 58.2605 88.92 58.2055C88.974 58.0854 89.0269 57.966 89.0684 57.8412C89.2187 57.3938 89.2175 56.951 89.0649 56.5237C88.9081 56.0856 88.4775 55.9152 88.1004 56.1352C87.7316 56.3499 87.5558 56.8712 87.6936 57.3032C87.6763 57.3515 87.6538 57.3971 87.6324 57.4441C87.6211 57.4682 87.6098 57.4931 87.5991 57.5186C87.4815 57.5326 87.3271 57.528 87.2642 57.5092C87.1822 57.475 87.1288 57.422 87.1044 57.3857C87.3622 57.208 87.5296 56.8631 87.5077 56.4988Z" fill="#F68220"></path><path fill-rule="evenodd" clip-rule="evenodd" d="M93.0485 59.037C93.1883 59.0982 93.3288 59.1587 93.4735 59.2069C94.6378 59.5967 95.7999 58.765 96.2101 57.7699C96.5215 57.0131 96.0929 56.3363 95.5168 56.143L94.4246 55.7818C94.1217 55.6809 93.7891 55.759 93.5477 55.9595C92.8734 56.0089 92.2323 56.4261 91.9739 57.0547C91.6541 57.8305 92.0057 58.6667 92.7576 58.9186C92.8572 58.9518 92.9525 58.9954 93.0485 59.037Z" fill="#F68220"></path><path fill-rule="evenodd" clip-rule="evenodd" d="M100.905 57.3549C101.946 57.7368 103.755 57.4983 104.222 56.254C104.509 55.4909 104.314 54.5435 103.235 54.1472C102.878 54.0153 102.442 53.9541 101.868 53.9541C101.556 53.9541 101.271 54.1277 101.096 54.3893C100.648 54.5197 100.202 54.849 99.9903 55.4131C99.8128 55.8858 99.8549 56.3757 100.107 56.7562C100.283 57.0235 100.552 57.2252 100.905 57.3549Z" fill="#F68220"></path><path fill-rule="evenodd" clip-rule="evenodd" d="M112.265 56.2503C112.405 55.8571 112.401 55.4457 112.254 55.0946C112.144 54.8305 111.873 54.4736 111.343 54.2952C111.266 54.1875 111.161 54.1025 111.036 54.0538C110.102 53.6911 109.226 54.3711 108.918 55.2381C108.64 56.0232 108.817 56.994 109.839 57.3911C110.936 57.8181 111.953 57.1316 112.265 56.2503Z" fill="#F68220"></path><path fill-rule="evenodd" clip-rule="evenodd" d="M76.9805 47.0892C79.4578 49.1393 82.0304 51.2345 84.801 53.4579C85.3047 53.8626 85.8137 54.2706 86.3313 54.6837C86.3964 54.7359 86.4674 54.775 86.5424 54.8017C86.8646 54.9183 87.2493 54.801 87.4841 54.4869C87.7735 54.1005 87.7255 53.5622 87.3782 53.2846C87.2921 53.2155 87.2112 53.1504 87.1257 53.0819C84.2828 50.8096 81.6529 48.678 79.1382 46.607C80.8217 45.9266 82.5631 45.3831 84.3341 44.9856C88.998 45.5193 93.5415 46.1339 97.8378 47.6809C100.995 48.8174 102.765 49.8966 104.061 50.8962C104.601 51.3127 105.06 51.7167 105.499 52.1038L105.647 52.2341C105.982 52.528 106.499 52.4648 106.804 52.0901C107.108 51.7167 107.083 51.1745 106.749 50.8799L106.601 50.7509C106.578 50.7301 106.554 50.7086 106.53 50.6877C105.026 49.3622 103.127 47.7259 98.4638 46.0459C93.9768 44.4304 89.2959 43.8048 84.4939 43.2574C84.409 43.2476 84.3222 43.2522 84.2367 43.2718C81.8305 43.8009 79.4749 44.5881 77.2343 45.6099C76.9608 45.735 76.7609 45.9983 76.7082 46.3033C76.6563 46.6076 76.7602 46.9067 76.9805 47.0892Z" fill="#F68220"></path><path fill-rule="evenodd" clip-rule="evenodd" d="M252.261 99.4511C246.207 92.3408 240.067 84.2567 240.067 76.7394C240.067 66.539 250.466 65.7462 253.654 65.7462C260.048 65.7462 262.911 69.9548 262.911 74.1264C262.911 79.1185 259.232 87.8594 252.261 99.4511ZM253.654 63.7642C244.067 63.7642 238.112 68.7358 238.112 76.7394C238.112 85.3038 245.105 94.1518 251.659 101.773C251.846 101.989 252.115 102.112 252.396 102.112C252.422 102.112 252.449 102.11 252.476 102.108C252.785 102.083 253.064 101.91 253.227 101.642C260.95 88.9872 264.866 79.7296 264.866 74.1264C264.866 69.1355 261.357 63.7642 253.654 63.7642Z" fill="#F68220"></path><path fill-rule="evenodd" clip-rule="evenodd" d="M251.319 79.6538C249.73 79.6538 248.925 78.8383 248.925 77.2313C248.925 76.1881 249.392 75.2344 250.144 74.7439C250.197 74.7089 250.37 74.6284 250.835 74.6284C253.209 74.6284 254.052 76.1252 254.052 77.4065C254.052 78.813 252.663 79.6538 251.319 79.6538ZM250.835 72.6821C250.118 72.6821 249.558 72.819 249.126 73.1012C247.813 73.9596 247.03 75.5036 247.03 77.2313C247.03 79.8848 248.713 81.6002 251.319 81.6002C253.595 81.6002 255.948 80.0314 255.948 77.4065C255.948 75.1312 254.348 72.6821 250.835 72.6821Z" fill="#F68220"></path><path fill-rule="evenodd" clip-rule="evenodd" d="M30.7692 113.76C30.8521 114.247 31.3298 114.597 31.8748 114.597C31.9308 114.597 31.9868 114.593 32.0428 114.586C32.6542 114.506 33.076 114.005 32.9841 113.469C32.6997 111.806 32.6042 110.076 32.5601 108.354C31.8076 108.363 31.0611 108.38 30.3213 108.411C30.3676 110.194 30.4676 111.995 30.7692 113.76Z" fill="#F68220"></path><path fill-rule="evenodd" clip-rule="evenodd" d="M32.9946 106.321C32.9771 104.347 32.9596 102.306 32.7986 100.322C32.7546 99.7822 32.3661 99.3797 31.9284 99.4425C31.4918 99.4962 31.1728 99.978 31.2173 100.517C31.371 102.415 31.3879 104.412 31.4049 106.343C31.4054 106.418 31.4065 106.495 31.4075 106.57C31.9401 106.539 32.47 106.523 32.9967 106.514C32.9962 106.449 32.9952 106.385 32.9946 106.321Z" fill="#F68220"></path><path fill-rule="evenodd" clip-rule="evenodd" d="M38.2152 106.571C37.0068 106.631 35.7654 106.638 34.5656 106.644C34.0441 106.647 33.5187 106.651 32.9908 106.658C32.3461 106.666 31.6975 106.682 31.0457 106.712C29.2783 106.791 27.4888 106.974 25.6955 107.424C25.176 107.554 24.8659 108.061 25.0028 108.555C25.1176 108.971 25.5113 109.246 25.9426 109.246C26.0243 109.246 26.108 109.236 26.191 109.215C27.8151 108.808 29.432 108.639 31.0781 108.564C31.7209 108.534 32.3688 108.518 33.0232 108.51C33.5369 108.503 34.0532 108.5 34.5759 108.497C35.7979 108.49 37.0626 108.484 38.3176 108.421C38.854 108.394 39.2659 107.958 39.238 107.447C39.2094 106.937 38.7613 106.553 38.2152 106.571Z" fill="#F68220"></path><mask id="mask0_662_23118" maskUnits="userSpaceOnUse" x="82" y="0" width="45" height="23" style="mask-type: alpha;"><path d="M82.5725 0.862305H126.337V22.2613H82.5725V0.862305Z" fill="white"></path></mask><g mask="url(#mask0_662_23118)"><path fill-rule="evenodd" clip-rule="evenodd" d="M83.4908 20.6087C84.0239 20.6467 84.5019 20.2356 84.538 19.6933C84.8003 15.7543 88.7937 10.5195 90.4613 10.5195C91.4809 10.5195 94.2318 11.6284 96.2291 15.0539C96.4187 15.3792 96.7708 15.5707 97.1537 15.5398C97.5288 15.5117 97.8554 15.2703 97.9937 14.9195C100.041 9.72936 103.308 2.82903 108.031 2.82903C110.52 2.82903 113.805 5.39165 114.99 10.1398C115.065 10.4441 115.282 10.6939 115.572 10.8126C115.861 10.9307 116.19 10.9038 116.458 10.7405C117.267 10.2448 118.165 9.98313 119.057 9.98313C121.505 9.98313 124.364 12.0795 124.37 17.9858C117.019 18.1536 109.651 18.728 102.516 19.2841C97.7485 19.6559 92.8187 20.0408 87.9819 20.2946C87.439 20.3235 87.0232 20.7864 87.0514 21.3294C87.079 21.8539 87.5131 22.2612 88.0331 22.2612C88.0501 22.2612 88.0672 22.2612 88.0855 22.2598C92.9472 22.0035 97.8895 21.6185 102.668 21.2461C110.078 20.6677 117.739 20.0703 125.342 19.9339C125.854 19.9248 126.272 19.5248 126.306 19.0139C126.328 18.6776 126.337 18.3405 126.337 18.0035C126.337 11.1044 122.681 8.01591 119.057 8.01591C118.21 8.01591 117.364 8.1805 116.56 8.49788C114.889 3.47952 111.116 0.861816 108.031 0.861816C102.292 0.861816 98.6554 8.17067 96.8554 12.4821C94.8246 9.89592 92.2423 8.55231 90.4613 8.55231C86.4803 8.55231 82.7813 16.4585 82.5747 19.5621C82.5387 20.1038 82.9485 20.5726 83.4908 20.6087Z" fill="#F68220"></path></g><path fill-rule="evenodd" clip-rule="evenodd" d="M185.726 50.9967C186.378 51.0435 186.962 50.5302 187.006 49.851C187.327 44.9274 192.21 38.3834 194.248 38.3834C195.495 38.3834 198.859 39.769 201.3 44.0517C201.532 44.4588 201.963 44.6981 202.431 44.6593C202.89 44.6232 203.289 44.3224 203.458 43.8839C205.961 37.3941 209.956 28.7679 215.73 28.7679C218.773 28.7679 222.789 31.9711 224.238 37.9081C224.331 38.2878 224.595 38.6006 224.95 38.749C225.303 38.8961 225.706 38.8633 226.033 38.6588C227.021 38.0391 228.12 37.7116 229.21 37.7116C232.204 37.7116 235.699 40.3332 235.706 47.7174C226.719 47.9266 217.711 48.6452 208.987 49.3404C203.158 49.8056 197.13 50.2862 191.217 50.6044C190.554 50.6398 190.045 51.2187 190.079 51.8978C190.113 52.5535 190.643 53.0622 191.279 53.0622C191.3 53.0622 191.322 53.0615 191.344 53.0609C197.288 52.74 203.331 52.2587 209.173 51.7922C218.233 51.0703 227.6 50.323 236.894 50.1518C237.52 50.1411 238.032 49.6412 238.073 49.0028C238.1 48.5824 238.111 48.1606 238.111 47.7395C238.111 39.114 233.641 35.2518 229.21 35.2518C228.175 35.2518 227.141 35.4583 226.158 35.856C224.114 29.5814 219.501 26.3081 215.73 26.3081C208.713 26.3081 204.267 35.4456 202.066 40.8365C199.583 37.6026 196.426 35.9235 194.248 35.9235C189.381 35.9235 184.859 45.8077 184.606 49.6879C184.562 50.3657 185.063 50.9513 185.726 50.9967Z" fill="#F68220"></path><path fill-rule="evenodd" clip-rule="evenodd" d="M88.2947 117.472C88.8169 117.508 89.2836 117.114 89.3193 116.594C89.5754 112.819 93.4814 107.802 95.1126 107.802C96.11 107.802 98.8008 108.864 100.754 112.148C100.94 112.459 101.284 112.644 101.658 112.613C102.026 112.586 102.345 112.355 102.48 112.019C104.483 107.044 107.678 100.43 112.298 100.43C114.732 100.43 117.945 102.887 119.104 107.438C119.178 107.729 119.39 107.969 119.673 108.082C119.957 108.196 120.279 108.17 120.541 108.013C121.331 107.538 122.21 107.287 123.082 107.287C125.477 107.287 128.274 109.297 128.279 114.958C121.089 115.119 113.883 115.669 106.903 116.203C102.241 116.559 97.4178 116.927 92.6873 117.172C92.1572 117.199 91.7499 117.642 91.7769 118.162C91.804 118.666 92.2291 119.056 92.7374 119.056C92.7546 119.056 92.7711 119.055 92.7889 119.055C97.5445 118.809 102.379 118.44 107.053 118.082C114.301 117.529 121.794 116.955 129.23 116.825C129.731 116.816 130.141 116.433 130.172 115.943C130.194 115.621 130.203 115.298 130.203 114.975C130.203 108.362 126.627 105.401 123.082 105.401C122.254 105.401 121.427 105.559 120.64 105.864C119.005 101.054 115.315 98.5444 112.298 98.5444C106.684 98.5444 103.128 105.55 101.367 109.683C99.381 107.204 96.8547 105.916 95.1126 105.916C91.2191 105.916 87.6009 113.494 87.3989 116.468C87.3633 116.988 87.7646 117.437 88.2947 117.472Z" fill="#F68220"></path><path fill-rule="evenodd" clip-rule="evenodd" d="M169.15 36.892C169.15 35.9787 169.292 35.9041 169.601 35.739C169.8 35.6331 170.047 35.5015 170.276 35.2458C170.327 35.1887 170.418 35.1127 170.618 35.1127C171.138 35.1127 172.409 35.7774 172.409 37.0097C172.409 37.0285 172.393 38.9074 170.929 38.9074C169.701 38.9074 169.15 37.8952 169.15 36.892ZM173.902 37.0097C173.902 34.8327 171.957 33.4429 170.618 33.4429C170.068 33.4429 169.585 33.6574 169.221 34.0643C169.175 34.1172 169.075 34.1702 168.96 34.2315C168.302 34.5819 167.659 35.0758 167.659 36.892C167.659 39.0272 169.034 40.5773 170.929 40.5773C172.86 40.5773 173.902 38.7388 173.902 37.0097Z" fill="#F68220"></path><mask id="mask1_662_23118" maskUnits="userSpaceOnUse" x="0" y="48" width="8" height="6" style="mask-type: alpha;"><path d="M0 48.0093H7.07206V53.6253H0V48.0093Z" fill="white"></path></mask><g mask="url(#mask1_662_23118)"><path fill-rule="evenodd" clip-rule="evenodd" d="M2.17582 53.618C3.86538 53.7262 5.87534 52.6254 6.80022 51.1397C7.3833 50.2026 6.9721 48.8341 6.1017 48.2896C5.14763 47.6931 4.02169 48.0981 3.43731 49.0373C3.32835 49.1809 3.17593 49.3723 3.15323 49.4063C3.06243 49.5124 2.97358 49.6213 2.87434 49.7219C2.79586 49.8003 2.71414 49.8745 2.63242 49.9487C2.4586 50.0673 2.29905 50.1728 2.1356 50.2761C2.00654 49.6505 1.14262 49.2495 0.722988 49.8204C0.23201 50.4904 -0.182435 51.2652 0.0828358 52.1427C0.371456 53.0999 1.29309 53.5618 2.17582 53.618Z" fill="#FFEBDC"></path></g><path fill-rule="evenodd" clip-rule="evenodd" d="M3.20194 47.3279C3.45405 47.3279 3.69314 47.2095 3.84865 47.0075C4.00417 46.8048 4.05966 46.5415 3.99868 46.2921C3.97334 46.1884 3.96169 46.0901 3.96169 45.9891C3.96169 45.6353 4.17407 45.0384 4.31245 44.9311C6.18067 45.349 6.38482 46.6376 6.38482 47.1781C6.38482 47.6929 5.76825 49.6091 3.91922 49.6091C2.66894 49.6091 2.53398 48.4354 2.53398 47.9304C2.53398 47.7974 2.69429 47.3279 3.20194 47.3279ZM3.91922 51.2787C6.65406 51.2787 8.02627 48.6499 8.02627 47.1781C8.02627 45.6325 7.11169 43.7957 4.54127 43.274C4.4755 43.2601 4.40425 43.2524 4.32478 43.2524C2.9834 43.2524 2.38464 44.8503 2.32435 45.8303C1.44197 46.1953 0.891846 47.0862 0.891846 47.9304C0.891846 49.933 2.10855 51.2787 3.91922 51.2787Z" fill="#F68220"></path><path fill-rule="evenodd" clip-rule="evenodd" d="M187.731 91.8486C187.727 91.8531 187.722 91.8584 187.718 91.8629C187.722 91.8575 187.728 91.854 187.731 91.8486Z" fill="#F68220"></path><path fill-rule="evenodd" clip-rule="evenodd" d="M177.546 119.947C184.217 119.947 190.713 114.288 191.73 107.589C191.784 107.235 191.539 106.904 191.184 106.85C190.83 106.796 190.497 107.04 190.443 107.394C189.517 113.495 183.611 118.649 177.546 118.649C174.603 118.649 163.611 116.217 163.611 104.316C163.611 97.8707 170.49 90.0933 179.051 90.0354C179.224 89.8544 179.399 89.6716 179.571 89.4932C179.743 89.3143 179.915 89.1353 180.087 88.9557C180.024 88.8893 179.964 88.8209 179.902 88.7539C179.65 88.7422 179.397 88.7344 179.147 88.7344C171.521 88.7344 162.308 95.6852 162.308 104.316C162.308 117.295 174.328 119.947 177.546 119.947Z" fill="#F68220"></path><path fill-rule="evenodd" clip-rule="evenodd" d="M179.059 89.3241C178.895 89.5068 178.729 89.6941 178.563 89.8795C177.68 90.8675 176.79 91.8921 175.982 93.0148C175.772 93.3061 175.822 93.7234 176.095 93.9474C176.209 94.0401 176.342 94.0854 176.474 94.0854C176.661 94.0854 176.845 93.9961 176.968 93.8261C177.887 92.5494 178.94 91.3775 179.957 90.2448C180.118 90.0655 180.278 89.8855 180.439 89.7055C180.586 89.5408 180.727 89.3848 180.867 89.2268C181.096 88.9661 181.092 88.5588 180.857 88.3035C180.27 87.6682 179.697 86.9722 179.144 86.2995C178.384 85.3775 177.599 84.4242 176.732 83.5615C176.481 83.3122 176.087 83.3269 175.852 83.5949C175.618 83.8642 175.632 84.2842 175.884 84.5349C176.706 85.3528 177.47 86.2808 178.209 87.1775C178.588 87.6382 178.977 88.1068 179.376 88.5668C179.436 88.6355 179.493 88.7055 179.553 88.7735C179.388 88.9575 179.224 89.1408 179.059 89.3241Z" fill="#F68220"></path><path fill-rule="evenodd" clip-rule="evenodd" d="M171.241 107.208C170.169 108.224 169.061 109.275 168.515 110.733C168.442 110.927 168.471 111.143 168.592 111.314C168.713 111.484 168.912 111.589 169.125 111.592C171.366 111.639 173.651 111.781 175.878 111.92C175.892 111.921 175.907 111.921 175.921 111.921C176.269 111.921 176.553 111.66 176.576 111.321C176.599 110.967 176.312 110.661 175.947 110.638C174.057 110.52 172.114 110.399 170.181 110.336C170.683 109.535 171.411 108.845 172.171 108.124C173.668 106.706 175.214 105.24 175.214 102.757C175.214 101.189 173.645 99.436 171.546 99.436C169.221 99.436 167.659 101.607 167.659 103.634C167.659 103.762 167.666 103.888 167.677 104.014C167.71 104.367 168.038 104.625 168.398 104.596C168.764 104.564 169.034 104.252 169.001 103.899C168.993 103.811 168.988 103.722 168.988 103.634C168.988 102.227 170.016 100.72 171.546 100.72C172.841 100.72 173.885 101.834 173.885 102.757C173.885 104.701 172.601 105.919 171.241 107.208Z" fill="#F68220"></path><path fill-rule="evenodd" clip-rule="evenodd" d="M182.82 105.312C181.922 105.331 181.008 105.3 180.117 105.266C179.987 105.261 179.858 105.256 179.73 105.252C179.723 104.916 179.719 104.58 179.714 104.244C179.694 102.856 179.672 101.421 179.59 100.024C179.569 99.6794 179.284 99.4137 178.938 99.4375C178.599 99.4582 178.341 99.7546 178.362 100.099C178.443 101.468 178.464 102.889 178.485 104.263C178.491 104.799 178.5 105.335 178.511 105.871C178.518 106.203 178.781 106.472 179.107 106.481C179.429 106.492 179.749 106.503 180.072 106.515C180.799 106.543 181.551 106.57 182.294 106.57C182.472 106.57 182.639 106.569 182.805 106.565V106.511C182.805 106.112 182.813 105.712 182.82 105.312Z" fill="#F68220"></path><path fill-rule="evenodd" clip-rule="evenodd" d="M182.837 105.267C182.83 105.694 182.82 106.122 182.82 106.548V106.605C182.821 107.913 182.865 109.623 183.184 111.365C183.244 111.692 183.545 111.921 183.888 111.921C183.927 111.921 183.968 111.919 184.009 111.912C184.398 111.85 184.659 111.504 184.593 111.14C184.287 109.472 184.249 107.81 184.249 106.548C184.249 105.811 184.264 105.073 184.279 104.332C184.294 103.579 184.31 102.825 184.31 102.068C184.31 101.331 184.295 100.678 184.264 100.072C184.245 99.7032 183.923 99.4206 183.516 99.4367C183.121 99.4541 182.817 99.7675 182.837 100.136C182.866 100.72 182.881 101.352 182.881 102.068C182.881 102.816 182.865 103.563 182.85 104.306C182.844 104.627 182.843 104.947 182.837 105.267Z" fill="#F68220"></path><path fill-rule="evenodd" clip-rule="evenodd" d="M151.619 68.9777C151.81 69.0231 152.007 69.0509 152.19 69.0541C152.986 69.0669 153.792 69.0872 154.586 69.1138C155.093 69.1304 155.315 68.959 155.08 68.73C154.844 68.501 154.242 68.3019 153.733 68.2848C152.916 68.2576 152.087 68.2368 151.268 68.2234C150.77 68.2149 150.571 68.3943 150.826 68.6238C150.987 68.7685 151.292 68.8998 151.619 68.9777Z" fill="#F68220"></path><path fill-rule="evenodd" clip-rule="evenodd" d="M161.928 69.3017C161.087 69.2348 160.236 69.1739 159.397 69.1198C158.884 69.0869 158.616 69.2174 158.798 69.4116C158.928 69.5513 159.255 69.6855 159.618 69.762C159.762 69.7923 159.909 69.8133 160.053 69.823C160.865 69.8747 161.689 69.9343 162.503 69.9984C163.023 70.0401 163.315 69.9178 163.157 69.7249C162.998 69.5326 162.448 69.3438 161.928 69.3017Z" fill="#F68220"></path><path fill-rule="evenodd" clip-rule="evenodd" d="M200.64 77.8467C200.744 77.6337 200.317 77.3248 199.688 77.1554C198.689 76.8869 197.664 76.619 196.613 76.3479C195.983 76.183 195.401 76.2298 195.315 76.4478C195.231 76.6657 195.674 76.9735 196.305 77.1358C197.335 77.4006 198.336 77.6634 199.314 77.9263C199.334 77.932 199.355 77.9377 199.376 77.9421C199.981 78.0925 200.539 78.052 200.64 77.8467Z" fill="#F68220"></path><path fill-rule="evenodd" clip-rule="evenodd" d="M204.955 79.7163C205.794 79.9968 206.619 80.282 207.41 80.5643C207.473 80.5873 207.535 80.6073 207.598 80.6244C208.052 80.7482 208.494 80.7358 208.636 80.5832C208.799 80.4093 208.513 80.1194 207.999 79.9349C207.176 79.6402 206.317 79.3432 205.446 79.0521C204.92 78.8759 204.39 78.8841 204.254 79.0674C204.119 79.2507 204.433 79.5412 204.955 79.7163Z" fill="#F68220"></path><path fill-rule="evenodd" clip-rule="evenodd" d="M214.599 82.6694C214.089 82.4781 213.481 82.4351 213.24 82.5705C212.998 82.7063 213.215 82.9709 213.725 83.1606C214.52 83.4578 215.315 83.7659 216.085 84.0757C216.207 84.1251 216.337 84.1659 216.468 84.1974C216.864 84.2925 217.266 84.3045 217.472 84.2115C217.745 84.0876 217.567 83.8273 217.074 83.629C216.266 83.3035 215.433 82.9807 214.599 82.6694Z" fill="#F68220"></path><path fill-rule="evenodd" clip-rule="evenodd" d="M229.979 90.8216C229.586 90.5958 228.958 90.4675 228.579 90.5369C228.199 90.6057 228.211 90.8453 228.605 91.0721C229.124 91.37 229.647 91.6756 230.175 91.9883C230.342 92.0869 230.552 92.1673 230.77 92.2224C231.057 92.2945 231.355 92.322 231.576 92.2857C231.964 92.2218 231.967 91.985 231.582 91.7571C231.043 91.4377 230.508 91.1261 229.979 90.8216Z" fill="#F68220"></path><path fill-rule="evenodd" clip-rule="evenodd" d="M180.752 72.5212C179.712 72.286 178.67 72.058 177.655 71.845C177.022 71.7117 176.54 71.8293 176.579 72.1075C176.613 72.3563 177.053 72.6489 177.598 72.8031C177.662 72.821 177.729 72.8375 177.795 72.8511C178.783 73.0591 179.795 73.2807 180.807 73.5094C181.442 73.6528 181.943 73.5481 181.928 73.2749C181.913 73.0024 181.384 72.6654 180.752 72.5212Z" fill="#F68220"></path><path fill-rule="evenodd" clip-rule="evenodd" d="M222.899 86.4111C222.416 86.1093 221.736 85.9757 221.38 86.1132C221.023 86.2506 221.127 86.6072 221.608 86.9098C222.351 87.3738 223.106 87.8601 223.853 88.3557C224.022 88.4676 224.22 88.558 224.42 88.6228C224.774 88.737 225.14 88.7702 225.382 88.6915C225.761 88.5688 225.692 88.2198 225.227 87.911C224.452 87.3977 223.669 86.8928 222.899 86.4111Z" fill="#F68220"></path><path fill-rule="evenodd" clip-rule="evenodd" d="M171.676 70.5865C170.648 70.3925 169.61 70.2065 168.589 70.0365C167.963 69.9311 167.556 70.1107 167.682 70.4372C167.782 70.7023 168.201 70.9816 168.689 71.1349C168.804 71.17 168.922 71.1996 169.042 71.2187C170.029 71.3848 171.034 71.5636 172.029 71.7512C172.661 71.8701 173.093 71.7065 172.996 71.3848C172.898 71.0631 172.309 70.7062 171.676 70.5865Z" fill="#F68220"></path><path fill-rule="evenodd" clip-rule="evenodd" d="M186.701 73.6525C186.067 73.5009 185.528 73.5747 185.497 73.8175C185.466 74.0517 185.918 74.3565 186.517 74.5135C186.539 74.5201 186.563 74.5255 186.585 74.5308C187.588 74.771 188.595 75.0178 189.607 75.2713C190.24 75.429 190.793 75.3638 190.842 75.1262C190.892 74.8874 190.417 74.5674 189.788 74.4084C188.753 74.1489 187.724 73.8974 186.701 73.6525Z" fill="#F68220"></path><path fill-rule="evenodd" clip-rule="evenodd" d="M21.6831 77.2661C20.8648 77.7201 20.0534 78.1908 19.2488 78.6739C18.7552 78.9706 18.5819 79.6342 18.8613 80.1564C19.0297 80.4712 19.3235 80.6634 19.6378 80.7011C19.8466 80.7265 20.0644 80.6852 20.2609 80.5677C21.047 80.0962 21.8378 79.6371 22.6369 79.1932C23.1388 78.914 23.3326 78.2568 23.069 77.7245C22.8067 77.1928 22.1857 76.9861 21.6831 77.2661Z" fill="#F68220"></path><path fill-rule="evenodd" clip-rule="evenodd" d="M29.9305 73.6164C29.0987 73.8613 28.2426 74.1434 27.3851 74.4558C26.8767 74.6413 26.6238 75.1789 26.8214 75.657C26.959 75.9892 27.2777 76.2051 27.6301 76.2434C27.7842 76.2595 27.9455 76.2422 28.1003 76.1859C28.9163 75.8884 29.7303 75.6193 30.5199 75.3879C31.0408 75.2352 31.3306 74.715 31.1679 74.2257C31.0053 73.7364 30.4514 73.463 29.9305 73.6164Z" fill="#F68220"></path><path fill-rule="evenodd" clip-rule="evenodd" d="M14.4615 80.8639L12.0906 82.3321C11.6 82.635 11.4462 83.2813 11.7482 83.7752C11.9229 84.0599 12.211 84.2319 12.5186 84.2683C12.742 84.2942 12.9765 84.248 13.1838 84.1193L15.5561 82.6511C16.0467 82.3475 16.1998 81.7005 15.8971 81.2073C15.5951 80.7135 14.9521 80.5603 14.4615 80.8639Z" fill="#F68220"></path><path fill-rule="evenodd" clip-rule="evenodd" d="M6.50252 85.3064C5.66327 85.8073 4.88616 86.2506 4.12817 86.6617C3.62421 86.9348 3.42208 87.5949 3.67816 88.1339C3.84 88.4749 4.14456 88.6859 4.47507 88.7268C4.66764 88.7509 4.86909 88.7166 5.05483 88.6151C5.8374 88.1908 6.63705 87.7344 7.50088 87.2189C7.99528 86.9246 8.17146 86.2571 7.89627 85.7292C7.62107 85.1998 6.99692 85.0114 6.50252 85.3064Z" fill="#F68220"></path></svg>